<svg width="506" height="172" viewBox="0 0 506 172" fill="none" xmlns="http://www.w3.org/2000/svg">
<path d="M445.147 158.775C445.147 158.775 479.233 90.9962 439.11 58.647C416.723 40.5961 386.155 72.6441 363.455 24.1978C350.245 -3.9948 304.014 -12.5449 280.897 25.9391C257.781 64.4231 237.905 64.2368 221.954 57.1094C203.661 48.9442 195.625 24.3719 166.992 29.5646C133.906 35.5706 138.329 71.9858 113.941 65.6455C66.9141 53.4177 32.0713 123.284 64.5789 159.25L445.147 158.775Z" fill="#E9F3FE"/>
<path d="M305.284 146.559C372.4 134.195 375.061 169.447 375.061 169.447L130.931 169.447C215.688 169.519 238.171 158.931 305.284 146.559Z" fill="#017BFC"/>
<path d="M82.579 151.647C97.7288 156.794 125.618 170.015 157.649 161.035C189.679 152.054 228.444 154.365 276.089 164.072C323.734 173.778 382.679 161.076 419.925 161.035C457.171 160.993 480.106 170.015 480.106 170.015L25.8874 170.859C46.2212 147.893 59.2797 143.731 82.579 151.647Z" fill="#017BFC" fill-opacity="0.5"/>
<path d="M30.021 154.616C34.8115 154.616 39.1004 153.603 42.8513 151.578C47.4554 149.089 50.3182 145.513 51.9063 142.951C53.5484 140.308 54.2015 138.209 54.2851 137.929C58.4643 126.835 64.1289 117.63 71.1222 110.572C76.7085 104.936 83.1533 100.647 90.2772 97.8221C102.397 93.0177 112.38 94.1426 112.478 94.1548L112.64 92.814C112.533 92.8 109.998 92.5057 105.899 92.814C100.369 93.2549 94.9365 94.5173 89.7791 96.5596C82.4811 99.452 75.8796 103.845 70.161 109.62C63.0214 116.817 57.2575 126.189 53.0104 137.482L52.9947 137.534C52.9947 137.555 52.3713 139.658 50.7309 142.289C49.2247 144.701 46.5203 148.069 42.1878 150.404C35.7448 153.873 27.6876 153.41 18.0178 150.528C17.8921 150.49 17.7598 150.478 17.6292 150.492C17.4987 150.507 17.3725 150.548 17.2584 150.614C17.1443 150.679 17.0448 150.767 16.9657 150.872C16.8867 150.977 16.8299 151.097 16.7989 151.224C16.7253 151.531 16.7725 151.855 16.9306 152.128C17.0888 152.401 17.3458 152.603 17.6486 152.692C22.0775 153.976 26.2016 154.618 30.021 154.616Z" fill="#017BFC"/>
<path d="M468.058 151.402C468.803 148.858 484.369 138.02 474.394 122.995C468.733 114.463 461.857 100.951 453.989 96.0583C444.156 89.9374 434.002 94.155 421.506 93.9687V95.32C433.751 95.508 443.273 90.883 452.892 96.8715C460.594 101.664 468.084 115.009 473.216 123.645C482.504 139.272 466.019 148.094 466.109 151.075C466.153 152.442 467.917 151.905 468.058 151.402Z" fill="#017BFC"/>
<path d="M185.304 71.9959C185.304 71.9959 199.206 86.5989 203.005 87.8666C209.051 89.8848 213.638 91.1891 216.18 92.0458C216.18 92.0458 219.315 91.6819 220.346 92.4864C221.376 93.2909 221.664 93.7506 221.246 94.1006C220.828 94.4507 216.906 94.2016 216.18 94.1006C215.454 93.9996 213.267 93.8081 213.267 93.8081L213.349 93.7576C209.121 93.5521 203.423 92.7476 201.055 92.1329C197.146 91.1194 184.892 81.4079 183.309 79.2939C178.952 73.476 182.511 70.6132 185.304 71.9959Z" fill="#FFB27D"/>
<path d="M170.78 70.4662C171.477 70.3251 172.696 67.7584 172.68 63.6035L172.999 63.6662L178.348 64.711C178.348 64.711 178.23 66.3949 178.228 67.9813C178.214 68.6887 178.256 69.3961 178.352 70.097C179.384 70.1353 180.081 70.1806 180.081 70.1806C180.081 70.1806 184.26 73.8915 184.596 75.8696C184.932 77.8478 176.971 77.8008 174.268 77.5588C171.566 77.3167 170.785 70.4627 170.785 70.4627L170.78 70.4662Z" fill="#FFB27D"/>
<path d="M178.348 64.7143C178.348 64.7143 178.229 66.3982 178.227 67.9846C175.236 67.9045 173.648 65.1775 173.003 63.666L178.348 64.7143Z" fill="#ED975D"/>
<path d="M165.704 48.7129C166.89 47.985 168.786 48.8487 168.786 48.8487C168.13 47.9293 165.739 48.2358 165.739 48.2358C170.514 47.2101 171.505 50.2714 171.581 50.5413C174.587 47.8196 179.181 52.5056 180.312 53.7559C181.43 54.7275 182.521 56.6309 180.823 60.8624L180.312 62.5166L173.869 62.9816L172.664 64.5854C172.664 64.5854 171.938 62.9137 170.982 63.4378C169.493 64.2545 166.603 60.9633 167.517 56.6256C167.607 56.189 167.724 55.7581 167.865 55.3353C167.554 55.4821 167.218 55.5661 166.874 55.5826C166.004 55.5826 164.692 53.3728 164.515 52.6222C164.337 51.8717 164.52 49.4408 165.704 48.7129Z" fill="#2C3A64"/>
<path d="M179.339 66.2154C179.339 66.2154 172.259 66.3442 172.247 61.9334C172.235 57.5225 171.312 54.5692 175.831 54.2993C180.349 54.0293 181.229 55.7115 181.598 57.1812C181.967 58.6509 181.191 66.0673 179.339 66.2154Z" fill="#FFB27D"/>
<path d="M174.164 60.1333C171.19 60.903 169.897 60.1089 169.897 60.1089C171.363 58.8168 172.333 57.0557 172.644 55.1269C172.644 55.1269 177.189 52.4226 179.008 54.0943C179.471 53.6955 180.297 53.4064 181.392 54.7281C183.038 56.715 181.584 60.2343 181.584 60.2343C180.91 60.3144 180.746 58.0036 180.391 56.8804C180.13 56.055 179.276 55.2122 178.843 54.8256C178.707 55.3359 177.29 60.2918 173.734 61.9443C174.834 60.9182 175.788 59.7464 176.57 58.4616C175.881 59.2504 175.071 59.9017 174.164 60.1333Z" fill="#2C3A64"/>
<path d="M179.354 112.372C181.369 116.953 183.932 122.918 186.179 128.183L187.518 131.318C189.782 136.622 191.453 140.599 191.453 140.599C191.312 153.113 208.846 168.353 208.846 168.353L210.831 166.96C210.831 166.96 201.353 153.976 200.057 139.083C199.068 127.706 196.383 117.68 194.123 110.873C192.886 107.144 191.775 104.376 191.14 102.875C190.64 102.71 190.123 102.604 189.599 102.558L179.882 112.053L179.354 112.372Z" fill="#2B478B"/>
<path d="M179.354 112.371C181.368 116.953 183.932 122.917 186.178 128.183L194.122 110.874C192.886 107.145 191.775 104.377 191.139 102.876C190.639 102.711 190.122 102.605 189.598 102.559L179.881 112.054L179.354 112.371Z" fill="#233862"/>
<path d="M159.793 166.455L161.935 167.216C161.935 167.216 169.907 144.366 173.207 140.848C179.585 134.057 188.975 104.412 188.975 104.412L174.509 100.294C172.629 102.119 168.959 106.14 168.602 114.291C168.209 123.266 167.333 133.686 167.169 135.71C167.149 135.864 167.079 136.008 166.969 136.119C157.092 147.117 159.793 166.455 159.793 166.455Z" fill="#2B478B"/>
<path d="M165.494 78.2782C166.021 79.7356 166.654 81.1522 167.389 82.5167C167.389 82.5167 174.45 93.9069 174.213 95.0022C173.977 96.0975 170.393 104.057 171.175 104.567C175.328 107.244 192.034 106.116 191.723 104.033C191.411 101.95 189.099 97.9608 188.97 93.4576C188.9 91.0197 189.206 87.941 189.126 85.0573C189.126 84.9546 189.126 84.8518 189.126 84.7473C189.82 84.1111 190.425 83.3849 190.925 82.5881C192.308 80.3574 192.073 78.5829 192.073 78.5829C192.073 78.5829 187.432 72.8626 185.645 71.5844C183.859 70.3063 180.085 70.1826 180.085 70.1826C180.085 70.1826 182.992 73.8935 183.056 75.1803C183.12 76.4672 175.42 76.9217 174.219 76.0806C173.017 75.2395 170.785 70.4647 170.785 70.4647C170.785 70.4647 165.97 70.6528 165.005 72.4446C164.248 73.8412 164.756 76.1955 165.494 78.2782Z" fill="#017BFC"/>
<path d="M189.134 83.0961C189.092 83.7495 189.092 84.4051 189.134 85.0586C189.134 84.9558 189.134 84.8531 189.134 84.7486C189.828 84.1123 190.432 83.3861 190.933 82.5893C191.018 81.905 190.78 81.1283 189.888 80.3256C187.121 77.8494 186.379 77.4297 186.379 77.4297C186.379 77.4297 189.199 81.7448 189.134 83.0961Z" fill="#4A75CB"/>
<path d="M167.39 82.5176C167.39 82.5176 174.451 93.9078 174.214 95.0032C180.978 82.0788 169.573 78.9653 165.495 78.2861C166.022 79.7411 166.655 81.1554 167.39 82.5176Z" fill="#4A75CB"/>
<path d="M204.982 169.576C204.982 169.576 205.106 169.268 205.255 168.832C205.499 168.117 205.807 167.056 205.713 166.485C205.656 166.155 205.705 165.814 205.853 165.513C205.999 165.212 207.246 166.301 207.855 165.783C209.045 164.784 209.318 164.7 209.376 164.7H209.389C209.389 164.7 212.001 166.356 212.679 166.974C213.898 168.075 215.213 168.251 215.883 168.446C216.017 168.485 216.14 168.554 216.242 168.648C216.345 168.743 216.425 168.859 216.475 168.989C216.625 169.377 216.776 169.905 216.616 170.131L210.283 170.118L210.269 170.104C210.199 170.03 209.84 169.71 209.064 169.811C208.552 169.877 208.181 170.02 207.683 170.098H206.192C204.909 169.933 204.982 169.576 204.982 169.576Z" fill="#233862"/>
<path d="M158.445 169.608C158.445 169.608 158.571 169.3 158.719 168.866C158.961 168.149 159.265 167.088 159.171 166.517C159.112 166.187 159.16 165.847 159.307 165.546C159.391 165.369 159.51 165.211 159.655 165.081C159.655 165.081 160.7 166.329 161.317 165.81C162.504 164.807 162.778 164.724 162.835 164.724H162.849C162.849 164.724 165.461 166.374 166.142 166.987C167.361 168.084 168.679 168.259 169.35 168.452C169.484 168.49 169.607 168.559 169.71 168.653C169.813 168.747 169.893 168.863 169.943 168.993C170.093 169.382 170.246 169.909 170.086 170.136H163.755L163.741 170.122C163.669 170.049 163.311 169.73 162.534 169.831C162.022 169.899 161.653 170.043 161.153 170.122H159.664C158.374 169.956 158.445 169.608 158.445 169.608Z" fill="#233862"/>
<path d="M353.65 94.9971L354.521 95.422C354.558 95.368 354.582 95.3314 354.591 95.314C354.599 95.2966 353.704 95.0145 353.65 94.9971Z" fill="#EE9849"/>
<path d="M374.788 46.4413C374.788 46.4413 377.454 44.2176 380.551 44.5763C383.649 44.935 387.146 46.2393 387.59 52.4542C388.034 58.6691 385.8 61.3351 389.265 63.773C392.73 66.2109 392.048 68.6279 391.264 71.0136C391.264 71.0136 389.767 67.2609 387.869 67.6284C387.869 67.6284 390.366 70.7854 390.108 73.0126C389.85 75.2398 387.475 77.2772 386.228 78.0277C386.228 78.0277 385.128 76.7026 383.109 77.1414C379.038 78.0277 373.647 71.6108 374.183 68.9448C374.72 66.2788 374.788 46.4413 374.788 46.4413Z" fill="#9B3D38"/>
<path d="M337.854 166.345L340.536 166.519C342.501 161.696 344.187 156.764 345.586 151.747C346.644 147.873 347.501 143.812 347.675 140.357C347.822 137.453 347.923 135.225 347.924 135.224C348.031 135.093 348.651 134.487 349.605 133.442C349.923 133.094 350.282 132.694 350.669 132.248C353.852 128.57 356.646 124.572 359.005 120.318C359.005 120.318 359.005 120.307 359.015 120.3C360.562 117.512 361.9 114.614 363.02 111.628C363.02 111.611 363.034 111.602 363.038 111.592C363.041 111.581 365.639 105.626 366.191 102.323C366.226 102.107 366.252 101.899 366.27 101.708C366.287 101.527 366.293 101.345 366.289 101.163L366.186 101.112L354.521 95.4268C352.4 98.3216 350.579 101.425 349.088 104.689L348.565 105.859C348.433 106.152 348.3 106.448 348.168 106.747L348.072 106.967C343.965 116.283 339.757 129.824 338.843 135.433C338.495 137.599 338.256 143.654 338.107 149.837C337.908 157.978 337.854 166.345 337.854 166.345Z" fill="#2B478B"/>
<path d="M348.079 106.962L349.61 133.431C349.928 133.082 350.287 132.682 350.674 132.236C353.857 128.558 356.651 124.56 359.01 120.306C359.01 120.306 359.01 120.296 359.02 120.289C360.557 117.397 361.895 114.403 363.025 111.329C363.025 111.31 363.039 111.3 363.044 111.288C363.049 111.275 365.291 106.032 366.196 102.311C366.231 102.095 366.257 101.888 366.274 101.696C366.292 101.515 366.298 101.333 366.294 101.151L366.191 101.101C366.191 101.101 354.67 95.5039 354.083 95.3193C352.224 98.3334 350.559 101.463 349.099 104.69L348.577 105.86C348.445 106.152 348.312 106.448 348.18 106.748L348.079 106.962Z" fill="#2B478B"/>
<path d="M353.285 137.644C354.169 140.042 357.274 147.128 360.142 153.583C362.979 159.97 365.587 165.74 365.587 165.74L368.238 166.011C368.419 161.52 368.347 157.022 368.023 152.538C367.557 146.487 366.444 140.044 363.914 137.051C363.87 136.979 363.845 136.898 363.841 136.815C363.836 136.731 363.852 136.648 363.888 136.572C364.236 135.506 365.662 131.142 367.102 125.627C367.451 124.29 367.799 122.886 368.147 121.448C368.635 119.358 369.093 117.187 369.476 115.033C369.483 114.996 369.49 114.961 369.497 114.928C369.671 114.444 369.97 113.628 370.294 112.545C370.863 110.647 371.313 108.715 371.64 106.761C371.651 106.694 371.663 106.626 371.673 106.556C372.514 101.414 371.891 98.3803 371.891 98.3803C371.891 98.3803 362.272 97.1161 359.195 96.0574C356.118 94.9986 354.234 95.2059 354.234 95.2059C354.234 95.2059 351.301 132.267 353.285 137.644Z" fill="#2B478B"/>
<path d="M333.917 92.423C334.119 92.0869 335.779 90.4326 339.49 89.6961C339.49 89.6961 339.718 89.6647 340.839 88.8602C344.268 86.2952 347.867 83.462 352.04 80.7733C354.256 79.3472 357.577 76.0717 361.03 72.7962C362.772 71.1401 364.56 69.4876 366.254 68.0649C367.163 67.3005 374.353 71.8959 373.713 72.7422C370.322 77.2157 361.666 82.3022 356.821 85.4663C352.562 88.2525 346.236 90.4936 343.216 91.4809C343.216 91.4809 341.609 91.9825 341.497 92.0678C341.386 92.1531 339.509 93.7987 338.492 94.3455C337.475 94.8923 335.963 94.6937 334.313 94.1905C333.21 93.8596 333.583 92.9768 333.917 92.423Z" fill="#ED975D"/>
<path d="M361.026 72.7885C361.409 74.3558 362.541 77.2151 365.703 77.4641C369.755 77.7845 372.014 68.2349 367.69 66.8418L366.245 68.0607C364.555 69.48 362.772 71.1395 361.026 72.7885Z" fill="#233862"/>
<path d="M371.205 46.9123C372.69 45.6933 379.006 40.9394 381.395 45.8675C381.395 45.8675 383.833 47.3424 384.099 51.9135C384.373 56.5786 380.256 59.9603 378.832 58.8789C377.919 58.1823 376.742 59.8958 376.742 59.8958L375.565 57.3395L369.831 56.0509L369.557 54.2469C368.451 49.5626 369.888 47.7481 371.205 46.9123Z" fill="#A9453D"/>
<path d="M372.196 105.559C374.761 99.4521 384.619 75.9263 377.314 65.2344C377.251 65.2031 377.188 65.1752 377.127 65.1491C374.39 63.9423 369.673 64.6267 368.388 65.6941C362.051 70.9809 361.009 74.3313 360.349 78.7543C359.665 83.341 358.807 88.074 355.188 93.0805C354.709 93.746 354.195 94.3854 353.647 94.9959C349.045 100.128 370.82 108.834 372.196 105.559Z" fill="#017BFC"/>
<path d="M369.758 65.1723C369.508 65.5206 367.788 66.5549 371.903 66.5549C375.114 66.5549 377.442 65.4283 377.313 65.235C376.894 64.6063 376.422 62.9712 377.165 58.6631H376.817L371.07 58.8268C371.07 58.8268 370.896 60.5977 370.628 62.2451C370.407 63.6381 369.966 64.885 369.758 65.1723Z" fill="#FFB27D"/>
<path d="M371.079 58.8346C371.079 58.8346 370.905 60.6055 370.637 62.2529C373.772 62.69 375.884 60.1302 376.824 58.6709L371.079 58.8346Z" fill="#ED975D"/>
<path d="M370.003 60.3316C370.003 60.3316 377.362 61.5767 378.065 56.9812C378.769 52.3858 380.195 49.4551 375.526 48.4643C370.858 47.4734 369.674 49.0877 369.066 50.5643C368.458 52.041 368.103 59.8893 370.003 60.3316Z" fill="#FFB27D"/>
<path d="M369.671 48.0425C371.019 46.8358 371.835 47.2659 372.255 47.7552C376.821 46.2629 378.726 49.8274 378.726 49.8274C378.749 51.8873 379.488 53.8751 380.815 55.4503C380.815 55.4503 379.344 56.0771 376.365 54.8077C375.456 54.4194 374.714 53.6201 374.12 52.6954C374.732 54.1566 375.542 55.5271 376.526 56.7685C373.084 54.4925 372.38 49.1169 372.316 48.5493C371.804 48.8853 370.782 49.6289 370.379 50.4491C369.834 51.5636 369.302 53.9457 368.612 53.7577C368.612 53.7507 367.649 49.8553 369.671 48.0425Z" fill="#A9453D"/>
<path d="M355.188 93.0858C372.631 88.6575 377.951 73.4746 377.951 73.4746C377.951 73.4746 361.642 77.9011 359.596 79.5223C358.911 84.1073 358.7 88.0776 355.188 93.0858Z" fill="#233862"/>
<path d="M360.143 153.588C362.98 159.975 365.588 165.744 365.588 165.744L368.238 166.016C368.42 161.524 368.348 157.026 368.024 152.543C366.61 153.264 364.099 154.021 360.143 153.588Z" fill="#FFB27D"/>
<path d="M337.855 166.345L340.537 166.519C342.502 161.696 344.188 156.764 345.587 151.747C343.762 151.836 340.081 151.747 338.099 149.842C337.909 157.977 337.855 166.345 337.855 166.345Z" fill="#FFB27D"/>
<path d="M330.418 169.012C330.47 168.874 330.553 168.751 330.661 168.651C330.768 168.551 330.898 168.477 331.038 168.435C331.745 168.225 333.138 168.031 334.406 166.868C335.12 166.213 337.858 164.451 337.858 164.451H337.872C337.932 164.451 338.22 164.536 339.481 165.583C340.134 166.123 341.222 164.798 341.222 164.798C341.374 164.935 341.498 165.101 341.588 165.285C341.745 165.602 341.798 165.96 341.739 166.309C341.645 166.912 341.976 168.026 342.239 168.78C342.397 169.236 342.531 169.56 342.531 169.56C342.531 169.56 342.61 169.936 341.26 170.118L339.693 170.13C339.171 170.051 338.775 169.903 338.235 169.837C337.415 169.736 337.041 170.076 336.966 170.154C336.96 170.158 336.956 170.164 336.952 170.17L330.277 170.226C330.107 169.978 330.264 169.423 330.418 169.012Z" fill="#2B478B"/>
<path d="M358.039 168.287C358.747 168.087 360.144 167.913 361.429 166.764C362.152 166.118 364.912 164.396 364.912 164.396H364.927C364.987 164.396 365.276 164.488 366.521 165.552C367.163 166.1 368.274 164.793 368.274 164.793C368.425 164.931 368.547 165.099 368.633 165.285C368.788 165.603 368.836 165.962 368.771 166.309C368.668 166.91 368.983 168.03 369.234 168.787C369.387 169.247 369.516 169.573 369.516 169.573C369.516 169.573 369.589 169.95 368.236 170.111H366.669C366.146 170.024 365.756 169.87 365.216 169.795C364.398 169.684 364.018 170.017 363.942 170.093L363.928 170.109L357.255 170.071C357.081 169.83 357.255 169.275 357.412 168.867C357.464 168.729 357.548 168.604 357.657 168.503C357.765 168.403 357.896 168.329 358.039 168.287Z" fill="#2B478B"/>
<path d="M444.997 95.3154L445.001 93.9641L100.578 92.8096L100.574 94.1609L417.872 94.9723L444.997 95.3154Z" fill="#017BFC"/>
<path d="M143.317 91.0368C143.317 91.0368 148.067 90.0268 150.029 91.3189C151.992 92.611 153.449 94.7581 152.218 95.2439C150.987 95.7298 147.231 94.6989 146.575 94.3019C145.918 93.9048 143.963 93.3511 143.734 93.1055C143.506 92.86 143.317 91.0368 143.317 91.0368Z" fill="#FFB27D"/>
<path d="M95.3155 60.4004C95.3155 60.4004 75.4518 74.6795 75.4518 81.0807C75.4518 84.3023 80.2823 93.0421 91.5036 94.2942L93.1753 91.2172C93.1753 91.2172 83.7076 83.7154 84.2578 82.937C84.8081 82.1587 97.2188 74.3434 97.2188 69.391C97.1843 66.2978 96.5375 63.2421 95.3155 60.4004Z" fill="#4DA3FD"/>
<path d="M143.947 163.415C143.947 163.415 147.3 166.997 151.816 167.572C151.816 167.572 154.83 167.598 154.83 170.358H138.874C138.664 169.126 138.54 167.881 138.505 166.632C138.426 164.793 135.867 162.903 135.867 162.903L143.947 163.415Z" fill="#233862"/>
<path d="M99.1054 164.907C99.1054 164.907 100.023 167.58 103.703 168.052C103.703 168.052 106.163 168.073 106.163 170.334H93.143C93.1599 169.188 93.3773 168.054 93.7855 166.983C94.2479 165.833 94.7836 164.714 95.3893 163.633L99.1054 164.907Z" fill="#233862"/>
<path d="M87.8477 111.641C87.8477 111.641 100.647 135.808 98.5797 139.608C94.1967 147.67 92.9098 164.161 93.4009 165.317C94.5408 166.095 95.835 166.618 97.1953 166.851C98.5557 167.084 99.9502 167.021 101.284 166.667C101.284 166.667 113.244 141.673 112.972 133.518C112.598 122.302 99.527 104.991 99.527 104.991L87.8477 111.641Z" fill="#233862"/>
<path d="M93.1752 61.8827C93.1752 61.8827 94.7024 67.6292 99.9265 67.9879C99.9265 67.9879 101.957 66.1404 102.768 64.4547C102.868 64.2458 102.967 64.0455 103.061 63.8557C103.982 61.9611 104.55 60.9215 104.55 60.9215C104.388 60.7474 99.1115 54.9696 99.0105 55.1959C96.6893 60.4009 93.1752 61.8827 93.1752 61.8827Z" fill="#FFB27D"/>
<path d="M99.0854 56.7324C99.1655 58.2004 100.252 61.5107 103.061 63.8563C103.982 61.9617 104.55 60.9221 104.55 60.9221C104.388 60.7863 99.0646 56.3006 99.0854 56.7324Z" fill="#ED975D"/>
<path d="M106.016 61.3708C106.016 61.3708 97.84 59.6294 99.0015 54.5551C100.163 49.4808 99.8914 45.8379 105.161 46.7347C110.43 47.6315 110.996 49.7994 111.02 51.5861C111.045 53.3727 108.173 61.6912 106.016 61.3708Z" fill="#FFB27D"/>
<path d="M111.723 108.619C111.723 108.619 133.827 148.322 146.123 163.794C146.123 163.794 142.571 166.768 136.903 165.055C136.903 165.055 118.484 150.14 113.244 141.674C108.005 133.207 96.3655 118.771 88.6548 112.927L111.723 108.619Z" fill="#2B478B"/>
<path d="M82.8967 91.9033C82.8967 91.9033 84.0704 110.654 87.8474 112.962C92.1886 115.612 114.316 111.965 112.907 109.425C111.668 107.177 110.702 104.789 110.031 102.311C108.927 98.3359 108.115 92.8593 108.742 85.8172C108.958 83.3543 108.968 80.8776 108.772 78.413C108.395 73.828 107.272 69.7776 105.484 67.5939C102.762 64.2854 95.3144 60.4004 95.3144 60.4004C95.3144 60.4004 82.0173 65.9031 82.8967 91.9033Z" fill="#017BFC"/>
<path d="M110.035 102.311C108.931 98.336 108.12 92.8594 108.747 85.8174C108.963 83.3544 108.972 80.8777 108.776 78.4131C107.209 76.0414 104.982 74.5508 101.823 74.6918C101.818 74.6918 96.12 91.3932 110.035 102.311Z" fill="#017BFC"/>
<path d="M103.245 65.7557C103.245 65.7557 115.877 77.623 122.682 82.4727C122.682 82.4727 144.01 89.7115 144.585 90.4603C144.585 90.4603 144.708 92.2992 143.751 93.4694C143.751 93.4694 122.741 91.7803 119.067 90.4151C115.393 89.0498 100.783 81.0709 99.5479 79.4062C98.3133 77.7415 97.1274 64.6064 103.245 65.7557Z" fill="#4DA3FD"/>
<path d="M97.4243 44.2928C97.3616 44.1953 97.1961 44.0977 96.8095 44.0211C97.0497 43.9248 97.3098 43.889 97.567 43.9166C97.7255 43.3786 98.1521 42.4469 99.1168 42.3494C98.9498 42.4177 98.8004 42.5229 98.6798 42.6571C98.5591 42.7913 98.4705 42.951 98.4203 43.1243C99.6584 42.1527 102.086 41.6616 108.412 43.0825C116.748 44.9562 113.19 50.048 112.006 50.5443C110.822 51.0405 108.329 48.8604 106.27 48.735C104.212 48.6096 103.404 51.5403 102.655 51.852C101.907 52.1637 102.281 51.4794 101.408 50.9169C100.536 50.3544 100.224 51.9147 100.348 52.9752C100.472 54.0357 98.9984 55.2006 98.9984 55.2006L97.9031 53.5986C96.8096 51.9965 96.4386 45.8182 97.2066 44.6202L97.4243 44.2928Z" fill="#2B478B"/>
<path d="M389.499 160.701C389.499 160.701 386.136 163.219 380.986 161.889C380.986 161.889 376.832 160.941 375.922 163.014C375.922 163.014 382.292 166.249 383.902 167.135C385.121 167.802 386.385 168.854 387.282 169.669C387.451 169.822 387.648 169.938 387.863 170.012C388.078 170.085 388.305 170.114 388.532 170.097C388.758 170.079 388.979 170.016 389.18 169.91C389.381 169.805 389.558 169.659 389.701 169.483C389.981 169.135 390.302 168.727 390.654 168.252C391.636 166.92 393.924 162.62 393.924 162.62L389.499 160.701Z" fill="#233862"/>
<path d="M387.526 159.421C387.526 159.421 389.572 164.142 394.298 163.273C394.298 163.273 403.942 155.31 410.557 147.037C412.704 144.35 414.535 141.63 415.607 139.141C419.994 128.986 431.831 113.839 439.359 106.162L420.527 99.3496C420.527 99.3496 414.495 111.483 406.469 126.389C400.686 137.128 393.875 149.306 387.526 159.421Z" fill="#2B478B"/>
<path d="M406.47 126.389L410.557 147.037C412.704 144.35 414.535 141.63 415.607 139.141C419.994 128.986 431.831 113.839 439.359 106.162L420.527 99.3496C420.527 99.3496 414.496 111.483 406.47 126.389Z" fill="#233862"/>
<path d="M405.141 88.3994L403.641 89.6184C403.641 89.6184 399.539 88.1469 398.612 93.021C398.612 93.021 398.367 95.1002 399.681 95.1106C400.996 95.121 400.455 94.8825 402.318 94.9365C404.181 94.9904 405.727 94.0083 405.999 92.4986L406.891 91.2187L405.141 88.3994Z" fill="#9C5F33"/>
<path d="M405.309 91.0136C404.113 89.765 404.21 88.8421 404.21 88.8421C404.21 88.8421 418.063 77.4989 419.473 76.576C420.431 75.9456 430.633 66.901 435.403 61.3861C437.768 58.6505 440.698 59.7127 444.051 60.6739L446.812 61.4697C450.145 62.4257 451.012 67.0891 448.277 69.3546C440.573 75.7367 427.758 82.9128 425.361 84.4208C419.407 88.1665 407.755 92.6156 407.755 92.6156C406.841 92.2499 406.01 91.7052 405.309 91.0136Z" fill="#4A75CB"/>
<path d="M421.865 163.44C421.865 163.44 422.07 167.207 417.511 167.709C417.511 167.709 414.899 167.722 414.899 170.12L428.17 170.162C428.17 170.162 428.557 169.196 428.649 167.123C428.722 165.534 427.108 161.377 427.108 161.377L421.865 163.44Z" fill="#233862"/>
<path d="M426.705 99.3495C426.705 99.3495 418.317 108.568 412.99 125.177C410.093 134.213 418.302 156.933 419.902 164.826C419.902 164.826 425.408 165.293 429.173 163.837C429.173 163.837 429.46 147.535 427.257 134.967C426.025 127.936 438.305 119.927 443.67 107.22C447.327 98.5746 442.879 98.7209 437.422 98.5137L426.705 99.3495Z" fill="#2B478B"/>
<path d="M440.351 56.1817C440.492 52.699 440.896 50.7051 440.896 50.7051L448.497 46.8428C446.735 53.9823 450.614 58.4245 450.614 58.4245C450.614 58.4245 441.059 60.8624 436.391 58.2191C437.575 57.3037 438.917 56.6132 440.351 56.1817Z" fill="#9C5F33"/>
<path d="M438.508 49.5216C438.508 49.5216 445.463 54.5124 448.505 50.1328C451.547 45.7533 454.492 43.4495 450.18 40.0765C445.869 36.7035 443.837 37.7709 442.464 38.9847C441.092 40.1984 436.777 48.1094 438.508 49.5216Z" fill="#AB7041"/>
<path d="M419.275 98.8752C419.275 99.6953 420.221 100.094 420.421 100.127C422.304 100.475 427.561 102.516 432.295 102.985C436.283 103.403 439.985 103.006 444.053 102.189C444.591 102.081 445.855 101.741 445.946 101.224C446.057 100.662 461.634 69.4723 449.524 56.0743C449.241 55.7609 446.851 56.3268 444.664 56.8457C442.822 57.2821 440.888 57.1242 439.141 56.3947L437.091 57.4657C434.575 58.8692 429.81 63.8512 429.255 67.7623C428.973 69.7509 427.836 71.2241 427.514 72.9725C427.398 73.6202 427.273 74.2518 427.139 74.8671C426.891 76.0756 426.635 77.226 426.373 78.3184C425.661 81.2787 424.909 83.8229 424.17 86.0222C423.385 88.3573 422.613 90.3007 421.926 91.9254C421.032 94.0324 420.278 95.6066 419.808 96.8134C419.465 97.6684 419.275 98.3353 419.275 98.8752Z" fill="#017BFC"/>
<path d="M419.798 96.8202C441.785 86.4608 449.401 66.5693 449.401 66.5693C449.401 66.5693 431.535 73.1586 427.135 74.8791C426.886 76.0876 426.631 77.238 426.368 78.3305C425.656 81.2908 424.904 83.8349 424.166 86.0342C423.38 88.3694 422.609 90.3127 421.921 91.9374C421.022 94.034 420.268 95.6134 419.798 96.8202Z" fill="#017BFC"/>
<path d="M406.936 90.8141L405.036 91.5106C405.036 91.5106 401.231 88.8202 398.863 93.1963C398.863 93.1963 398.006 95.1118 399.363 95.5227C400.719 95.9337 400.234 95.5471 402.132 96.1827C404.03 96.8183 405.916 96.3568 406.637 94.9968L407.929 94.0495L406.936 90.8141Z" fill="#AB7041"/>
<path d="M405.369 93.5098C404.672 91.6779 404.347 90.8472 404.347 90.8472C404.347 90.8472 418.702 79.1453 420.165 78.1353C421.163 77.451 431.087 70.0328 435.924 64.2515C437.102 62.844 438.64 61.783 440.374 61.1818C442.108 60.5806 443.972 60.4619 445.768 60.8384L448.784 61.4688C452.422 62.2315 453.604 66.8392 450.782 69.2579C442.832 76.0736 429.422 83.9793 426.925 85.6267C420.715 89.7067 406.987 95.4253 406.987 95.4253C406.987 95.4253 405.923 94.9412 405.369 93.5098Z" fill="#017BFC"/>
<path d="M441.729 35.0282C441.872 34.0404 442.145 33.076 442.541 32.1602C442.541 32.1602 442.978 33.9694 446.281 33.7187C449.585 33.4679 454.823 34.0443 456.564 37.8091C456.676 38.05 456.775 38.2964 456.862 38.5475C457.179 37.7133 457.255 36.4578 457.255 36.4578C457.882 38.079 457.255 40.1147 457.255 40.1147C457.266 40.1739 457.273 40.2331 457.281 40.2888C458.011 40.9053 458.624 42.8207 458.624 42.8207C458.403 42.2879 457.867 41.9379 457.388 41.7237C457.403 44.6526 456.214 47.5172 454.13 48.3705C451.08 49.6173 451.105 48.6665 448.035 50.7004C448.035 50.7004 447.213 49.6799 447.774 48.9939C448.334 48.3078 450.455 47.31 449.269 46.3122C448.084 45.3144 447.65 46.4375 447.213 45.7514C446.776 45.0654 448.954 43.0715 446.152 41.2013C443.351 39.3311 441.48 36.7121 441.729 35.0282Z" fill="#233862"/>
<path d="M336.723 91.7683C337.101 91.6638 338.732 91.7248 342.469 91.1223C342.469 91.1223 342.697 91.0996 343.847 90.3352C347.366 87.8973 351.066 85.1929 355.34 82.661C358.331 80.8831 363.362 75.9638 368.041 72.0614C368.704 71.5076 369.359 70.9748 370.002 70.475L371.848 69.0349C372.381 68.6182 373.036 68.385 373.713 68.3699C374.39 68.3549 375.054 68.5588 375.605 68.9513C376.81 69.8028 378.096 71.1785 378.266 73.2246C378.32 73.855 377.955 74.6003 377.284 75.4222C376.279 76.5975 375.154 77.6643 373.927 78.6054C369.702 81.9627 363.703 85.2556 359.933 87.5246C355.58 90.1367 349.173 92.1636 346.119 93.0412C346.119 93.0412 344.493 93.4835 344.378 93.5636C344.263 93.6437 341.794 94.5284 340.757 95.0368C339.721 95.5453 336.009 95.9772 334.804 94.288C333.599 92.5989 335.95 91.9755 336.723 91.7683Z" fill="#FFB27D"/>
<path d="M367.876 72.0193C367.876 72.0193 369.339 76.3414 373.938 78.7601C375.319 77.6648 376.515 76.5608 377.396 75.4811C378.093 74.6348 378.462 73.8669 378.408 73.2174C378.215 70.9223 376.667 69.4456 375.336 68.5941C374.832 68.2695 374.239 68.1101 373.641 68.1379C373.042 68.1656 372.466 68.3793 371.994 68.749C371.429 69.1913 370.716 69.7486 369.896 70.3859C369.233 70.9014 368.559 71.4499 367.876 72.0193Z" fill="#017BFC"/>
<path d="M201.075 91.248C201.209 91.2864 203.513 91.8001 205.11 91.558C206.707 91.316 209.164 93.2071 209.31 93.733C209.456 94.2589 208.828 95.4743 207.959 95.4743C207.09 95.4743 206.452 95.0703 206.167 94.6454C205.881 94.2205 204.485 94.5758 203.711 94.076C202.938 93.5762 201.075 91.248 201.075 91.248Z" fill="#FFB27D"/>
<path d="M166.33 79.8301C166.995 80.7199 169.943 83.0237 173.428 85.4686C178.235 88.8433 184.062 92.4897 186.327 93.0783C190.237 94.0918 206.165 94.6455 206.165 93.3587C206.165 92.1693 191.538 88.7336 187.632 87.8647C185.845 87.4676 182.07 84.0337 178.491 80.4273C174.237 76.1332 170.265 71.5847 170.265 71.5847C167.474 70.2004 161.971 74.007 166.33 79.8301Z" fill="#FFB27D"/>
<path d="M166.33 79.8307C166.995 80.7206 169.943 83.0244 173.427 85.4693C177.124 84.2782 178.186 81.7863 178.491 80.4193C174.237 76.1251 170.265 71.5767 170.265 71.5767C167.474 70.201 161.971 74.0076 166.33 79.8307Z" fill="#017BFC"/>
<path d="M275.427 107.027C281.492 108.485 286.948 107.015 291.206 102.779C294.643 99.3568 296.525 94.9042 297.34 92.5551C297.501 92.094 297.563 91.6045 297.522 91.1181C297.482 90.6316 297.339 90.1591 297.105 89.731C296.87 89.3029 296.549 88.9287 296.161 88.6326C295.773 88.3365 295.327 88.125 294.852 88.0119L284.595 85.5479L283.756 89.0462L293.905 91.4841C292.284 96.09 287.385 106.2 276.268 103.529L275.427 107.027Z" fill="#017BFC"/>
<path d="M258.358 102.928L259.197 99.4294C248.081 96.7581 248.309 85.5264 248.957 80.6871L259.105 83.125L259.946 79.6267L249.691 77.1626C249.217 77.0484 248.724 77.0347 248.244 77.1225C247.765 77.2102 247.308 77.3975 246.905 77.6723C246.502 77.9471 246.161 78.3032 245.904 78.7178C245.647 79.1324 245.48 79.5962 245.413 80.0794C245.065 82.5434 244.727 87.3653 246.235 91.9746C248.102 97.6898 252.293 101.47 258.358 102.928Z" fill="#017BFC"/>
<path d="M273.179 69.6543C273.08 70.0655 273.105 70.4968 273.252 70.8936C273.398 71.2904 273.659 71.635 274.001 71.8837C274.343 72.1323 274.751 72.274 275.174 72.2907C275.596 72.3075 276.014 72.1985 276.375 71.9776C276.736 71.7567 277.023 71.4338 277.2 71.0498C277.377 70.6658 277.436 70.2378 277.37 69.8201C277.304 69.4023 277.116 69.0136 276.829 68.7029C276.542 68.3923 276.169 68.1737 275.758 68.0748C275.485 68.0092 275.202 67.998 274.924 68.0419C274.647 68.0857 274.381 68.1838 274.141 68.3304C273.902 68.4771 273.694 68.6695 273.528 68.8966C273.363 69.1238 273.245 69.3812 273.179 69.6543Z" fill="#017BFC"/>
<path d="M275.758 68.07C275.862 68.0954 275.964 68.1286 276.063 68.1692C275.883 68.242 275.72 68.3516 275.585 68.491C275.45 68.6303 275.345 68.7964 275.278 68.9785C275.211 69.1607 275.183 69.3548 275.195 69.5486C275.207 69.7423 275.26 69.9313 275.349 70.1036C275.439 70.2758 275.563 70.4274 275.715 70.5486C275.867 70.6699 276.042 70.7581 276.23 70.8076C276.417 70.8572 276.613 70.867 276.805 70.8363C276.997 70.8057 277.18 70.7353 277.343 70.6297V70.6489C277.244 71.0601 277.025 71.4328 276.715 71.7198C276.404 72.0068 276.015 72.1952 275.598 72.2613C275.18 72.3273 274.752 72.268 274.368 72.0908C273.984 71.9137 273.661 71.6266 273.44 71.2659C273.219 70.9053 273.11 70.4872 273.127 70.0646C273.144 69.642 273.285 69.2338 273.534 68.8917C273.783 68.5497 274.127 68.289 274.524 68.1427C274.921 67.9964 275.352 67.9711 275.763 68.07H275.758Z" fill="#017BFC"/>
<path d="M246.373 121.328C246.48 121.043 246.689 120.808 246.958 120.667C247.228 120.527 247.541 120.491 247.835 120.567C249.345 120.933 250.922 120.913 252.422 120.509C256.601 119.371 263.893 115.998 259.158 106.753C249.483 87.8677 260.899 74.8545 260.899 74.8545L273.197 77.8148L285.494 80.7751C285.494 80.7751 289.755 97.5531 272.558 109.983C264.145 116.064 269.101 122.376 272.314 125.293C273.466 126.334 274.862 127.068 276.373 127.426C276.67 127.492 276.932 127.666 277.109 127.914C277.286 128.162 277.366 128.466 277.332 128.769C277.309 128.935 277.252 129.094 277.163 129.236C277.075 129.379 276.958 129.501 276.82 129.596C276.681 129.69 276.525 129.755 276.36 129.785C276.195 129.815 276.026 129.811 275.863 129.772L261.545 126.332L247.226 122.893C247.063 122.854 246.909 122.781 246.776 122.679C246.643 122.577 246.532 122.448 246.452 122.3C246.371 122.153 246.323 121.99 246.309 121.822C246.296 121.655 246.317 121.486 246.373 121.328Z" fill="#017BFC"/>
<path d="M260.422 74.7457L286.389 80.9833C286.791 81.0772 287.214 81.0089 287.566 80.793C287.917 80.5772 288.17 80.2313 288.268 79.8305C288.316 79.6315 288.324 79.4251 288.292 79.2229C288.261 79.0207 288.189 78.8269 288.082 78.6523C287.975 78.4778 287.835 78.3261 287.669 78.2059C287.504 78.0856 287.316 77.9992 287.117 77.9516L261.15 71.714C260.748 71.6201 260.325 71.6884 259.974 71.9042C259.622 72.1201 259.369 72.466 259.271 72.8668C259.223 73.0657 259.215 73.2722 259.247 73.4744C259.279 73.6765 259.35 73.8704 259.457 74.0449C259.564 74.2194 259.704 74.3712 259.87 74.4914C260.035 74.6117 260.223 74.6981 260.422 74.7457Z" fill="#4DA3FD"/>
<path d="M261.029 71.6913C260.961 71.8133 260.91 71.9439 260.878 72.0796C260.783 72.4815 260.851 72.9044 261.066 73.2566C261.282 73.6087 261.628 73.8616 262.029 73.9603L288.001 80.1978L288.121 80.2204C287.955 80.5181 287.697 80.7535 287.385 80.8912C287.073 81.0288 286.725 81.0611 286.394 80.9832L260.427 74.7456C260.036 74.6505 259.697 74.4083 259.481 74.0694C259.265 73.7306 259.188 73.3214 259.267 72.9272C259.345 72.5331 259.573 72.1845 259.902 71.9542C260.232 71.7238 260.637 71.6297 261.034 71.6913H261.029Z" fill="#017BFC"/>
<path d="M264.319 72.4767L283.526 77.0895C283.928 77.184 284.351 77.1159 284.704 76.9C285.056 76.6841 285.308 76.338 285.407 75.9367C285.501 75.5346 285.433 75.1114 285.217 74.7593C285.001 74.4071 284.655 74.1544 284.254 74.0561L265.052 69.445C264.65 69.3504 264.227 69.4183 263.875 69.6338C263.523 69.8493 263.27 70.1951 263.171 70.596C263.077 70.9974 263.144 71.4199 263.359 71.772C263.574 72.124 263.919 72.3772 264.319 72.4767Z" fill="#017BFC"/>
<path d="M265.015 69.4388C264.98 69.5212 264.95 69.6062 264.928 69.693C264.834 70.0952 264.902 70.5184 265.118 70.8705C265.333 71.2227 265.68 71.4754 266.081 71.5737L285.285 76.1866H285.319C285.174 76.5238 284.915 76.7988 284.587 76.9633C284.258 77.1277 283.883 77.1708 283.526 77.0851L264.319 72.4775C264.119 72.4318 263.93 72.3472 263.764 72.2285C263.597 72.1099 263.455 71.9596 263.346 71.7862C263.238 71.6128 263.164 71.4196 263.13 71.2178C263.096 71.016 263.102 70.8094 263.148 70.6099C263.193 70.4104 263.278 70.2218 263.396 70.055C263.515 69.8881 263.665 69.7463 263.839 69.6376C264.012 69.5288 264.205 69.4553 264.407 69.4212C264.609 69.3871 264.816 69.3931 265.015 69.4388Z" fill="#017BFC"/>
<path d="M246.372 121.328C246.479 121.043 246.688 120.808 246.958 120.667C247.227 120.527 247.54 120.491 247.835 120.567C249.344 120.933 250.921 120.913 252.421 120.509C256.601 119.371 263.892 115.998 259.157 106.753C249.482 87.8677 260.898 74.8545 260.898 74.8545L273.196 77.8148L273.42 77.8688C268.423 81.8408 264.414 88.0801 262.605 95.6132C259.213 109.736 264.767 123.323 275.104 127.017C275.516 127.182 275.94 127.317 276.372 127.421C276.669 127.487 276.931 127.661 277.108 127.909C277.285 128.156 277.365 128.461 277.331 128.763C277.308 128.929 277.251 129.089 277.162 129.231C277.074 129.374 276.957 129.496 276.819 129.59C276.68 129.685 276.524 129.749 276.359 129.78C276.194 129.81 276.025 129.805 275.862 129.766L261.544 126.327L247.225 122.888C247.062 122.849 246.91 122.776 246.777 122.674C246.644 122.572 246.534 122.444 246.453 122.297C246.373 122.15 246.324 121.988 246.31 121.821C246.296 121.654 246.317 121.486 246.372 121.328Z" fill="#9FCBF9" fill-opacity="0.53"/>
<path d="M253 94.5513L285.563 94.6349L285.052 93.4282L254.994 93.3271L253 94.5513Z" fill="#233862"/>
<path d="M255.368 91.612L283.251 97.611C283.383 97.64 283.52 97.6239 283.641 97.5655C283.762 97.5071 283.861 97.4097 283.92 97.2888C283.961 97.2067 283.982 97.1163 283.982 97.0245C283.983 96.9328 283.962 96.8422 283.922 96.7597C283.882 96.6771 283.824 96.6049 283.752 96.5484C283.679 96.4919 283.595 96.4527 283.505 96.4338L255.628 90.4105C255.545 90.3924 255.459 90.3918 255.375 90.4088C255.292 90.4258 255.213 90.4599 255.143 90.509C255.073 90.5581 255.015 90.6212 254.971 90.6941C254.927 90.7671 254.899 90.8484 254.888 90.9329C254.869 91.0857 254.907 91.2401 254.996 91.3658C255.085 91.4914 255.218 91.5793 255.368 91.612Z" fill="#233862"/>
<path d="M255.96 97.0775L285.307 91.5835C285.447 91.5575 285.573 91.4836 285.663 91.3745C285.754 91.2654 285.804 91.1281 285.804 90.9863C285.804 90.8968 285.784 90.8084 285.746 90.7274C285.708 90.6465 285.653 90.5748 285.584 90.5177C285.515 90.4605 285.434 90.4192 285.348 90.3966C285.261 90.3741 285.171 90.3709 285.083 90.3872L255.737 95.869C255.657 95.8842 255.58 95.9153 255.511 95.9607C255.442 96.0061 255.383 96.0648 255.338 96.1333C255.292 96.2018 255.261 96.2787 255.245 96.3595C255.23 96.4403 255.231 96.5234 255.248 96.6039C255.282 96.7599 255.375 96.8965 255.508 96.9849C255.641 97.0733 255.803 97.1065 255.96 97.0775Z" fill="#233862"/>
<path d="M0.5224 171.135L505.478 171.135C505.616 171.135 505.749 171.08 505.847 170.982C505.945 170.884 506 170.751 506 170.612C506 170.474 505.945 170.341 505.847 170.243C505.749 170.145 505.616 170.09 505.478 170.09L0.5224 170.09C0.38385 170.09 0.250977 170.145 0.153015 170.243C0.0550537 170.341 0 170.474 0 170.612C0 170.751 0.0550537 170.884 0.153015 170.982C0.250977 171.08 0.38385 171.135 0.5224 171.135Z" fill="#2E3552"/>
</svg>
