<svg width="229" height="229" viewBox="0 0 229 229" fill="none" xmlns="http://www.w3.org/2000/svg">
<g opacity="0.4">
<path d="M114.089 57.25C85.0198 57.25 86.8339 69.8557 86.8339 69.8557L86.8697 82.9159H114.607V86.8339H75.8455C75.8455 86.8339 57.25 84.7228 57.25 114.056C57.25 143.383 73.484 142.345 73.484 142.345H83.1735V128.734C83.1735 128.734 82.6511 112.5 99.1498 112.5H126.658C126.658 112.5 142.116 112.75 142.116 97.5612V72.4463C142.116 72.4463 144.463 57.25 114.089 57.25ZM98.792 66.0307C101.551 66.0307 103.784 68.2635 103.784 71.0222C103.784 73.7809 101.551 76.0137 98.792 76.0137C98.1363 76.0146 97.4868 75.8862 96.8808 75.6356C96.2747 75.3851 95.7241 75.0175 95.2604 74.5538C94.7967 74.0901 94.4291 73.5395 94.1786 72.9335C93.9281 72.3275 93.7996 71.678 93.8005 71.0222C93.8005 68.2635 96.0333 66.0307 98.792 66.0307Z" fill="#017BFC"/>
<path d="M114.912 171.152C143.98 171.152 142.166 158.547 142.166 158.547L142.131 145.486H114.393V141.568H153.151C153.151 141.568 171.75 143.679 171.75 114.35C171.75 85.0196 155.516 86.0609 155.516 86.0609H145.827V99.6685C145.827 99.6685 146.349 115.902 129.85 115.902H102.342C102.342 115.902 86.8843 115.652 86.8843 130.841V155.956C86.8843 155.956 84.5371 171.152 114.912 171.152ZM130.208 162.372C129.553 162.372 128.903 162.244 128.297 161.993C127.691 161.743 127.14 161.375 126.677 160.912C126.213 160.448 125.845 159.897 125.595 159.291C125.344 158.685 125.216 158.036 125.217 157.38C125.217 154.625 127.45 152.392 130.208 152.392C132.967 152.392 135.2 154.621 135.2 157.38C135.2 160.142 132.967 162.372 130.208 162.372Z" fill="#4DA3FD"/>
</g>
</svg>
