<svg width="31" height="29" viewBox="0 0 31 29" fill="none" xmlns="http://www.w3.org/2000/svg">
<path d="M15.5048 0.335449C7.69386 0.335449 8.18157 3.41014 8.18157 3.41014L8.19024 6.59562H15.6441V7.55198H5.22968C5.22968 7.55198 0.231445 7.03744 0.231445 14.1913C0.231445 21.3454 4.59403 21.0917 4.59403 21.0917H7.1976V17.7719C7.1976 17.7719 7.05725 13.8119 11.4906 13.8119H18.8835C18.8835 13.8119 23.037 13.8728 23.037 10.1681V4.04258C23.037 4.04258 23.6678 0.335449 15.5048 0.335449ZM11.3948 2.47762C11.5709 2.47747 11.7454 2.50886 11.9081 2.56998C12.0709 2.6311 12.2188 2.72075 12.3433 2.8338C12.4679 2.94686 12.5666 3.0811 12.634 3.22884C12.7013 3.37658 12.7359 3.53492 12.7357 3.69481C12.7359 3.85469 12.7013 4.01304 12.634 4.16078C12.5666 4.30852 12.4679 4.44276 12.3433 4.55581C12.2188 4.66887 12.0709 4.75852 11.9081 4.81964C11.7454 4.88076 11.5709 4.91214 11.3948 4.912C11.2186 4.91214 11.0442 4.88076 10.8814 4.81964C10.7187 4.75852 10.5708 4.66887 10.4462 4.55581C10.3217 4.44276 10.2229 4.30852 10.1556 4.16078C10.0882 4.01304 10.0537 3.85469 10.0538 3.69481C10.0537 3.53492 10.0882 3.37658 10.1556 3.22884C10.2229 3.0811 10.3217 2.94686 10.4462 2.8338C10.5708 2.72075 10.7187 2.6311 10.8814 2.56998C11.0442 2.50886 11.2186 2.47747 11.3948 2.47762Z" fill="#1967FF"/>
<path d="M15.7272 28.1192C23.5382 28.1192 23.0505 25.0445 23.0505 25.0445L23.0418 21.8591H15.5878V20.9027H26.0022C26.0022 20.9027 31.0005 21.4173 31.0005 14.2632C31.0005 7.10921 26.6379 7.36293 26.6379 7.36293H24.0343V10.6826C24.0343 10.6826 24.1747 14.6426 19.7413 14.6426H12.3484C12.3484 14.6426 8.19489 14.5816 8.19489 18.2865V24.4121C8.19489 24.4121 7.56418 28.1192 15.7271 28.1192H15.7272ZM19.8372 25.9772C19.6611 25.9773 19.4867 25.946 19.3239 25.8848C19.1611 25.8237 19.0133 25.7341 18.8887 25.621C18.7642 25.508 18.6654 25.3737 18.5981 25.226C18.5307 25.0782 18.4961 24.9199 18.4963 24.76C18.4961 24.6001 18.5307 24.4418 18.598 24.294C18.6653 24.1463 18.7641 24.012 18.8887 23.8989C19.0132 23.7859 19.1611 23.6962 19.3239 23.6351C19.4866 23.574 19.6611 23.5426 19.8372 23.5427C20.0134 23.5426 20.1878 23.574 20.3506 23.6351C20.5134 23.6962 20.6612 23.7858 20.7858 23.8989C20.9103 24.012 21.0091 24.1462 21.0764 24.2939C21.1438 24.4417 21.1783 24.6 21.1782 24.7599C21.1783 24.9198 21.1438 25.0781 21.0764 25.2259C21.0091 25.3736 20.9103 25.5079 20.7858 25.6209C20.6612 25.734 20.5134 25.8236 20.3506 25.8847C20.1878 25.9459 20.0134 25.9773 19.8372 25.9772Z" fill="#4DA3FD"/>
</svg>
