<svg width="34" height="28" viewBox="0 0 34 28" fill="none" xmlns="http://www.w3.org/2000/svg">
<path d="M34 14.1933C34 12.1891 31.1827 10.2898 26.8633 9.112C27.8601 5.19003 27.4171 2.06973 25.465 1.07074C25.0151 0.836404 24.489 0.725405 23.9145 0.725405V2.10056C24.2329 2.10056 24.489 2.15606 24.7036 2.26089C25.645 2.74189 26.0534 4.57337 25.735 6.92902C25.6588 7.50868 25.5342 8.11917 25.382 8.742C24.0252 8.446 22.5439 8.21784 20.9864 8.06984C20.0519 6.92902 19.0828 5.89303 18.1068 4.98653C20.3634 3.11805 22.4816 2.09439 23.9214 2.09439V0.719238C22.0178 0.719238 19.5258 1.92789 17.0062 4.02454C14.4865 1.94023 11.9946 0.743905 10.091 0.743905V2.11906C11.5239 2.11906 13.6489 3.13655 15.9056 4.9927C14.9365 5.89919 13.9674 6.92902 13.0467 8.06984C11.4823 8.21784 10.001 8.446 8.64425 8.74817C8.48504 8.13151 8.36736 7.53335 8.28429 6.95985C7.95895 4.6042 8.36044 2.77272 9.29492 2.28556C9.50259 2.17456 9.77255 2.12523 10.091 2.12523V0.750071C9.50951 0.750071 8.98343 0.86107 8.52657 1.0954C6.58145 2.09439 6.14536 5.20853 7.14907 9.11817C2.8435 10.3022 0.0400391 12.1953 0.0400391 14.1933C0.0400391 16.1974 2.85734 18.0968 7.17675 19.2746C6.17997 23.1965 6.62298 26.3168 8.57502 27.3158C9.02496 27.5502 9.55104 27.6612 10.1325 27.6612C12.0361 27.6612 14.5281 26.4525 17.0477 24.3559C19.5674 26.4402 22.0593 27.6365 23.9629 27.6365C24.5444 27.6365 25.0705 27.5255 25.5273 27.2912C27.4724 26.2922 27.9085 23.178 26.9048 19.2684C31.1965 18.0906 34 16.1913 34 14.1933ZM24.9874 10.0802C24.7313 10.8757 24.4129 11.6958 24.0529 12.516C23.7691 12.0226 23.4714 11.5293 23.1461 11.036C22.8277 10.5427 22.4885 10.0617 22.1493 9.59299C23.1323 9.72249 24.0806 9.88283 24.9874 10.0802ZM21.8171 16.6476C21.2771 17.4801 20.7234 18.2694 20.1488 19.0032C19.1174 19.0834 18.0722 19.1266 17.02 19.1266C15.9748 19.1266 14.9295 19.0834 13.9051 19.0094C13.3305 18.2756 12.7698 17.4924 12.2299 16.6661C11.7038 15.8583 11.2262 15.0381 10.7901 14.2118C11.2193 13.3855 11.7038 12.5591 12.223 11.7513C12.7629 10.9188 13.3167 10.1295 13.8912 9.39566C14.9226 9.3155 15.9679 9.27233 17.02 9.27233C18.0653 9.27233 19.1105 9.3155 20.135 9.3895C20.7095 10.1233 21.2702 10.9065 21.8101 11.7328C22.3362 12.5406 22.8138 13.3608 23.2499 14.1871C22.8138 15.0134 22.3362 15.8398 21.8171 16.6476ZM24.0529 15.8459C24.4267 16.6723 24.7451 17.4986 25.0082 18.3003C24.1014 18.4976 23.1461 18.6641 22.1562 18.7936C22.4954 18.3188 22.8346 17.8316 23.153 17.3321C23.4714 16.8388 23.7691 16.3393 24.0529 15.8459ZM17.0339 22.4257C16.3901 21.8337 15.7463 21.1739 15.1095 20.4524C15.7325 20.4771 16.3693 20.4956 17.0131 20.4956C17.6638 20.4956 18.3075 20.4832 18.9375 20.4524C18.3145 21.1739 17.6707 21.8337 17.0339 22.4257ZM11.8838 18.7936C10.9009 18.6641 9.95253 18.5038 9.04573 18.3064C9.30185 17.5109 9.62027 16.6908 9.98022 15.8706C10.264 16.3639 10.5617 16.8573 10.887 17.3506C11.2124 17.8439 11.5446 18.3249 11.8838 18.7936ZM16.9993 5.96086C17.643 6.55285 18.2868 7.21268 18.9236 7.93418C18.3006 7.90951 17.6638 7.89101 17.02 7.89101C16.3693 7.89101 15.7256 7.90334 15.0957 7.93418C15.7187 7.21268 16.3624 6.55285 16.9993 5.96086ZM11.8769 9.59299C11.5377 10.0678 11.1985 10.555 10.8801 11.0545C10.5617 11.5478 10.264 12.0411 9.98022 12.5345C9.60642 11.7081 9.288 10.8818 9.02496 10.0802C9.93176 9.88899 10.887 9.72249 11.8769 9.59299ZM5.61235 17.3136C3.16192 16.3824 1.57675 15.1614 1.57675 14.1933C1.57675 13.2251 3.16192 11.998 5.61235 11.073C6.20766 10.8448 6.85834 10.6413 7.52978 10.4502C7.92434 11.6588 8.4435 12.9168 9.08726 14.2056C8.45043 15.4883 7.93819 16.7401 7.55055 17.9426C6.86526 17.7514 6.21458 17.5418 5.61235 17.3136ZM9.33646 26.1257C8.39505 25.6447 7.98664 23.8132 8.30506 21.4576C8.3812 20.8779 8.5058 20.2674 8.65809 19.6446C10.0148 19.9406 11.4962 20.1687 13.0536 20.3167C13.9881 21.4576 14.9572 22.4935 15.9332 23.4C13.6766 25.2685 11.5585 26.2922 10.1187 26.2922C9.80716 26.286 9.54412 26.2305 9.33646 26.1257ZM25.7557 21.4267C26.0811 23.7824 25.6796 25.6139 24.7451 26.101C24.5375 26.212 24.2675 26.2614 23.9491 26.2614C22.5162 26.2614 20.3911 25.2439 18.1345 23.3877C19.1036 22.4812 20.0727 21.4514 20.9933 20.3106C22.5577 20.1626 24.0391 19.9344 25.3958 19.6322C25.555 20.2551 25.6796 20.8532 25.7557 21.4267ZM28.4208 17.3136C27.8255 17.5418 27.1748 17.7453 26.5033 17.9364C26.1088 16.7278 25.5896 15.4698 24.9459 14.181C25.5827 12.8983 26.0949 11.6465 26.4826 10.444C27.1679 10.6352 27.8185 10.8448 28.4277 11.073C30.8781 12.0041 32.4633 13.2251 32.4633 14.1933C32.4564 15.1614 30.8712 16.3886 28.4208 17.3136Z" fill="#017BFC"/>
<path d="M17.014 17.0113C18.7611 17.0113 20.1774 15.7496 20.1774 14.1931C20.1774 12.6367 18.7611 11.375 17.014 11.375C15.2669 11.375 13.8506 12.6367 13.8506 14.1931C13.8506 15.7496 15.2669 17.0113 17.014 17.0113Z" fill="#017BFC"/>
</svg>
