<svg width="131" height="117" viewBox="0 0 131 117" fill="none" xmlns="http://www.w3.org/2000/svg">
<g opacity="0.4">
<path d="M131 58.3439C131 49.6657 120.132 41.4415 103.47 36.3414C107.315 19.3589 105.606 5.84774 98.0764 1.52201C96.3408 0.507337 94.3114 0.0267016 92.0952 0.0267016V5.98125C93.3235 5.98125 94.3115 6.22156 95.1392 6.6755C98.7707 8.75825 100.346 16.6887 99.1178 26.8889C98.8241 29.3989 98.3435 32.0424 97.756 34.7393C92.5224 33.4576 86.8082 32.4696 80.8002 31.8288C77.1955 26.8889 73.4572 22.403 69.6922 18.4778C78.3971 10.3871 86.5679 5.95455 92.1219 5.95455V0C84.7788 0 75.1661 5.23359 65.4466 14.3123C55.7271 5.287 46.1143 0.106808 38.7713 0.106808V6.06135C44.2986 6.06135 52.4961 10.4672 61.201 18.5045C57.4627 22.4297 53.7244 26.8889 50.1731 31.8288C44.1384 32.4696 38.4242 33.4576 33.1906 34.766C32.5764 32.0958 32.1225 29.5057 31.8021 27.0224C30.5471 16.8223 32.0958 8.89176 35.7006 6.78231C36.5016 6.30167 37.543 6.08806 38.7713 6.08806V0.13351C36.5283 0.13351 34.499 0.614145 32.7366 1.62882C25.2334 5.95454 23.5512 19.439 27.423 36.3681C10.8143 41.4949 0 49.6924 0 58.3439C0 67.022 10.8677 75.2462 27.5298 80.3463C23.6847 97.3288 25.3936 110.84 32.9236 115.166C34.6592 116.18 36.6885 116.661 38.9315 116.661C46.2746 116.661 55.8873 111.427 65.6068 102.349C75.3263 111.374 84.939 116.554 92.2821 116.554C94.5251 116.554 96.5544 116.074 98.3168 115.059C105.82 110.733 107.502 97.2487 103.63 80.3196C120.186 75.2195 131 66.9953 131 58.3439ZM96.234 40.5336C95.246 43.9782 94.0177 47.5295 92.6292 51.0809C91.5344 48.9447 90.3863 46.8086 89.1313 44.6724C87.903 42.5363 86.5946 40.4535 85.2862 38.4242C89.0779 38.9849 92.736 39.6792 96.234 40.5336ZM84.0045 68.9712C81.9217 72.576 79.7856 75.9939 77.5693 79.1714C73.5907 79.5185 69.5587 79.7055 65.5 79.7055C61.468 79.7055 57.436 79.5185 53.4841 79.1981C51.2678 76.0206 49.105 72.6294 47.0222 69.0514C44.9929 65.5534 43.1504 62.002 41.4682 58.424C43.1237 54.8459 44.9929 51.2678 46.9955 47.7699C49.0783 44.1651 51.2144 40.7472 53.4307 37.5697C57.4093 37.2226 61.4413 37.0357 65.5 37.0357C69.532 37.0357 73.564 37.2226 77.5159 37.543C79.7322 40.7205 81.895 44.1117 83.9778 47.6898C86.0071 51.1877 87.8496 54.7391 89.5318 58.3172C87.8496 61.8952 86.0071 65.4733 84.0045 68.9712ZM92.6292 65.5C94.0711 69.078 95.2994 72.6561 96.3141 76.1274C92.8162 76.9818 89.1313 77.7028 85.3129 78.2635C86.6213 76.2075 87.9297 74.098 89.158 71.9352C90.3863 69.799 91.5344 67.6361 92.6292 65.5ZM65.5534 93.991C63.0701 91.4276 60.5868 88.5705 58.1302 85.4464C60.5334 85.5532 62.99 85.6333 65.4733 85.6333C67.9833 85.6333 70.4666 85.5799 72.8965 85.4464C70.4933 88.5705 68.01 91.4276 65.5534 93.991ZM45.6871 78.2635C41.8954 77.7028 38.2373 77.0086 34.7393 76.1541C35.7273 72.7095 36.9556 69.1582 38.3441 65.6068C39.4389 67.743 40.587 69.8791 41.842 72.0153C43.097 74.1514 44.3787 76.2342 45.6871 78.2635ZM65.4199 22.6967C67.9032 25.2601 70.3865 28.1172 72.843 31.2413C70.4399 31.1345 67.9833 31.0544 65.5 31.0544C62.99 31.0544 60.5067 31.1078 58.0769 31.2413C60.48 28.1172 62.9633 25.2601 65.4199 22.6967ZM45.6604 38.4242C44.352 40.4802 43.0436 42.5897 41.8153 44.7525C40.587 46.8887 39.4389 49.0249 38.3441 51.161C36.9022 47.583 35.6739 44.0049 34.6592 40.5336C38.1572 39.7059 41.842 38.9849 45.6604 38.4242ZM21.4951 71.8551C12.0426 67.8231 5.92784 62.5361 5.92784 58.3439C5.92784 54.1516 12.0426 48.8379 21.4951 44.8326C23.7915 43.8447 26.3015 42.9635 28.8916 42.1357C30.4136 47.3693 32.4162 52.8165 34.8995 58.3973C32.4429 63.9513 30.467 69.3718 28.9717 74.5787C26.3282 73.7509 23.8182 72.843 21.4951 71.8551ZM35.8608 110.012C32.2293 107.929 30.6539 99.999 31.8822 89.7988C32.1759 87.2888 32.6565 84.6453 33.244 81.9484C38.4776 83.2301 44.1918 84.2181 50.1998 84.8589C53.8045 89.7988 57.5428 94.2847 61.3078 98.2099C52.6029 106.301 44.4321 110.733 38.8781 110.733C37.6765 110.706 36.6618 110.466 35.8608 110.012ZM99.1979 89.6653C100.453 99.8654 98.9042 107.796 95.2994 109.905C94.4984 110.386 93.457 110.6 92.2287 110.6C86.7014 110.6 78.5039 106.194 69.799 98.1565C73.5373 94.2313 77.2756 89.7721 80.827 84.8322C86.8616 84.1914 92.5758 83.2034 97.8094 81.895C98.4236 84.5919 98.9042 87.182 99.1979 89.6653ZM109.478 71.8551C107.182 72.843 104.672 73.7242 102.082 74.552C100.56 69.3184 98.5571 63.8712 96.0738 58.2904C98.5304 52.7364 100.506 47.3159 102.002 42.109C104.645 42.9368 107.155 43.8447 109.505 44.8326C118.957 48.8646 125.072 54.1516 125.072 58.3439C125.045 62.5361 118.931 67.8498 109.478 71.8551Z" fill="#017BFC"/>
<path d="M65.4733 70.5463C72.2127 70.5463 77.6761 65.0829 77.6761 58.3434C77.6761 51.604 72.2127 46.1406 65.4733 46.1406C58.7339 46.1406 53.2705 51.604 53.2705 58.3434C53.2705 65.0829 58.7339 70.5463 65.4733 70.5463Z" fill="#017BFC"/>
</g>
</svg>
