<svg width="588" height="434" viewBox="0 0 588 434" fill="none" xmlns="http://www.w3.org/2000/svg">
<path d="M529.084 404.006H490.133V404.3H529.084V404.006Z" fill="#EBEBEB"/>
<path d="M389.514 407.197H379.291V407.491H389.514V407.197Z" fill="#EBEBEB"/>
<path d="M488.956 393.084H466.386V393.378H488.956V393.084Z" fill="#EBEBEB"/>
<path d="M112.486 395.061H61.6914V395.355H112.486V395.061Z" fill="#EBEBEB"/>
<path d="M130.405 395.061H122.957V395.355H130.405V395.061Z" fill="#EBEBEB"/>
<path d="M264.772 400.026H154.609V400.32H264.772V400.026Z" fill="#EBEBEB"/>
<path d="M280.36 332.629H53.2751C49.5742 332.629 46.5625 329.618 46.5625 325.917V6.71261C46.5625 3.01174 49.5742 0 53.2751 0H280.36C284.059 0 287.071 3.01174 287.071 6.71261V325.917C287.071 329.618 284.059 332.629 280.36 332.629ZM53.2751 0.295175C49.7353 0.295175 46.8565 3.17402 46.8565 6.71378V325.918C46.8565 329.458 49.7353 332.336 53.2751 332.336H280.36C283.898 332.336 286.777 329.458 286.777 325.918V6.71261C286.777 3.17402 283.898 0.294 280.36 0.294L53.2751 0.295175Z" fill="#EBEBEB"/>
<path d="M534.724 332.629H307.639C303.939 332.629 300.928 329.618 300.928 325.917V6.71261C300.928 3.01174 303.939 0 307.639 0H534.724C538.426 0 541.436 3.01174 541.436 6.71261V325.917C541.436 329.618 538.424 332.629 534.724 332.629ZM307.639 0.295175C304.101 0.295175 301.222 3.17402 301.222 6.71378V325.918C301.222 329.458 304.101 332.336 307.639 332.336H534.724C538.263 332.336 541.142 329.458 541.142 325.918V6.71261C541.142 3.17402 538.263 0.294 534.724 0.294L307.639 0.295175Z" fill="#EBEBEB"/>
<path d="M588 385.077H0V385.371H588V385.077Z" fill="#EBEBEB"/>
<path d="M478.366 129.191H431.877C427.455 129.191 423.87 132.777 423.87 137.199V167.142C423.87 171.565 427.456 175.149 431.877 175.149H445.245L451.214 182.957C453.183 185.531 457.06 185.531 459.029 182.957L464.998 175.149H478.366C482.789 175.149 486.373 171.564 486.373 167.142V137.199C486.375 132.777 482.789 129.191 478.366 129.191Z" fill="#E0E0E0"/>
<path d="M445.131 155.371C442.809 153.091 441.801 150.593 441.801 148.36C441.801 144.545 444.343 142.005 448.198 142.005C451.792 142.005 453.019 143.671 455.123 146.08C457.226 143.671 458.454 142.005 462.047 142.005C465.903 142.005 468.444 144.545 468.444 148.36C468.444 150.594 467.436 153.091 465.114 155.371L455.123 165.32L445.131 155.371Z" fill="white"/>
<path d="M118.612 364.636C115.875 361.949 114.688 359.006 114.688 356.374C114.688 351.88 117.683 348.887 122.226 348.887C126.459 348.887 127.906 350.851 130.385 353.688C132.863 350.851 134.309 348.887 138.544 348.887C143.087 348.887 146.082 351.881 146.082 356.374C146.082 359.006 144.894 361.95 142.157 364.636L130.385 376.358L118.612 364.636Z" fill="#E0E0E0"/>
<path d="M145.201 377.865C143.527 376.223 142.802 374.423 142.802 372.815C142.802 370.067 144.633 368.236 147.41 368.236C149.999 368.236 150.883 369.437 152.398 371.172C153.913 369.437 154.797 368.236 157.385 368.236C160.163 368.236 161.994 370.066 161.994 372.815C161.994 374.423 161.268 376.223 159.595 377.865L152.398 385.032L145.201 377.865Z" fill="#EBEBEB"/>
<path d="M447.137 43.8965H393.799C388.725 43.8965 384.612 48.0101 384.612 53.0834V87.4379C384.612 92.5123 388.726 96.6248 393.8 96.6248H409.138L415.987 105.582C418.246 108.536 422.694 108.536 424.953 105.582L431.802 96.6248H447.139C452.213 96.6248 456.326 92.5111 456.326 87.4379V53.0834C456.324 48.009 452.211 43.8965 447.137 43.8965Z" fill="#F5F5F5"/>
<path d="M403.721 84.075H409.762V62.5918H402.713L403.721 84.075Z" fill="#E0E0E0"/>
<path d="M437.792 65.9485C437.485 64.9959 436.523 63.0014 435.61 62.5922C432.961 61.4032 427.163 61.7831 422.031 62.4581C422.246 62.0488 422.425 61.6819 422.527 61.415C422.97 60.2566 423.679 57.8094 423.596 56.5722C423.52 55.4374 422.992 52.9066 422.03 52.2986C421.518 51.9752 420.026 51.8612 419.609 52.2986C418.592 53.3629 419.3 56.7251 418.896 58.1398C418.524 59.4393 416.832 61.7266 415.387 63.5212C413.594 63.854 412.45 64.1021 412.45 64.1021V83.0675C412.45 83.0675 427.94 87.2835 432.926 85.9205C434.844 85.396 435.747 82.0738 436.45 80.2145C437.713 76.8759 438.887 69.3471 437.792 65.9485Z" fill="#E0E0E0"/>
<path d="M312.229 73.7373C311.663 66.7565 305.832 61.3799 298.829 61.3799H294H289.17C282.167 61.3799 276.336 66.7565 275.77 73.7373L274.959 81.9328H313.041L312.229 73.7373Z" fill="#F7941D"/>
<path d="M294 61.381C299.007 61.381 303.067 57.3216 303.067 52.314C303.067 47.3065 299.007 43.2471 294 43.2471C288.992 43.2471 284.933 47.3065 284.933 52.314C284.933 57.3216 288.992 61.381 294 61.381Z" fill="#407BFF"/>
<path d="M114.091 200.138C112.641 200.138 111.309 200.649 110.266 201.498L102.987 195.63C103.404 194.806 103.644 193.878 103.644 192.893C103.644 189.544 100.929 186.827 97.5785 186.827C94.2281 186.827 91.5127 189.543 91.5127 192.893C91.5127 196.243 94.2281 198.959 97.5785 198.959C99.0285 198.959 100.359 198.448 101.403 197.599L108.682 203.468C108.265 204.291 108.025 205.219 108.025 206.204C108.025 207.19 108.265 208.117 108.682 208.941L101.403 214.809C100.36 213.96 99.0285 213.449 97.5785 213.449C94.2281 213.449 91.5127 216.165 91.5127 219.515C91.5127 222.866 94.2281 225.581 97.5785 225.581C100.929 225.581 103.644 222.866 103.644 219.515C103.644 218.53 103.404 217.602 102.987 216.779L110.266 210.91C111.311 211.76 112.641 212.27 114.091 212.27C117.441 212.27 120.157 209.555 120.157 206.204C120.155 202.854 117.44 200.138 114.091 200.138Z" fill="#E0E0E0"/>
<path d="M125.87 277.178C131.957 316.864 106.684 375.2 157.233 397.338C224.74 426.905 267.038 352.062 321.816 338.358C363.66 327.89 435.966 403.856 488.08 355.629C540.247 307.353 452.432 241.584 449.126 202.316C445.856 163.466 518.571 95.7914 460.238 54.5315C403.036 14.0724 337.975 91.3497 283.812 105.779C235.762 118.581 119.009 57.7043 84.2958 117.385C51.4125 173.921 119.992 238.865 125.87 277.178Z" fill="#407BFF"/>
<path opacity="0.9" d="M125.87 277.178C131.957 316.864 106.684 375.2 157.233 397.338C224.74 426.905 267.038 352.062 321.816 338.358C363.66 327.89 435.966 403.856 488.08 355.629C540.247 307.353 452.432 241.584 449.126 202.316C445.856 163.466 518.571 95.7914 460.238 54.5315C403.036 14.0724 337.975 91.3497 283.812 105.779C235.762 118.581 119.009 57.7043 84.2958 117.385C51.4125 173.921 119.992 238.865 125.87 277.178Z" fill="white"/>
<path d="M293.999 433.663C419.927 433.663 522.012 427.701 522.012 420.347C522.012 412.993 419.927 407.031 293.999 407.031C168.07 407.031 65.9854 412.993 65.9854 420.347C65.9854 427.701 168.07 433.663 293.999 433.663Z" fill="#F5F5F5"/>
<path d="M407.907 255.352H496.91C503.744 255.352 509.284 260.892 509.284 267.725V335.378C509.284 342.212 503.744 347.752 496.91 347.752H429.705C428.387 358.571 419.186 366.957 408.011 366.957C407.515 366.957 407.031 366.916 406.544 366.883C410.022 362.302 412.859 355.663 414.718 347.752H407.907C401.073 347.752 395.533 342.212 395.533 335.378V267.725C395.533 260.892 401.073 255.352 407.907 255.352Z" fill="#407BFF"/>
<path opacity="0.4" d="M407.907 255.352H496.91C503.744 255.352 509.284 260.892 509.284 267.725V335.378C509.284 342.212 503.744 347.752 496.91 347.752H429.705C428.387 358.571 419.186 366.957 408.011 366.957C407.515 366.957 407.031 366.916 406.544 366.883C410.022 362.302 412.859 355.663 414.718 347.752H407.907C401.073 347.752 395.533 342.212 395.533 335.378V267.725C395.533 260.892 401.073 255.352 407.907 255.352Z" fill="white"/>
<path d="M403.696 281.657L399.296 274.22L402.046 269.471C402.405 268.852 402.465 268.103 402.209 267.432L402.005 266.897C401.661 265.998 400.809 265.394 399.847 265.37L395.531 265.257C394.64 265.233 393.81 265.711 393.384 266.493L392.509 268.093C392.082 268.874 392.051 269.811 392.425 270.618L394.286 274.631L397.725 283.856L403.696 281.657Z" fill="#7F3E3B"/>
<path d="M438.72 280.351L413.595 298.64L401.791 276.561L395.088 279.462C395.088 279.462 405.421 312.933 411.427 311.582C417.432 310.231 434.395 301.847 439.917 296.089C442.699 293.188 444.819 287.863 442.068 281.275C441.518 279.959 439.871 279.512 438.72 280.351Z" fill="#407BFF"/>
<path d="M448.115 236.813C448.115 236.813 439.239 239.141 443.351 249.847C443.351 249.847 447.767 248.685 448.488 245.822C449.209 242.959 449.885 238.954 449.885 238.954L448.115 236.813Z" fill="#263238"/>
<path opacity="0.3" d="M448.115 236.813C448.115 236.813 439.239 239.141 443.351 249.847C443.351 249.847 447.767 248.685 448.488 245.822C449.209 242.959 449.885 238.954 449.885 238.954L448.115 236.813Z" fill="black"/>
<path d="M469.077 279.295L452.872 278.763L446.167 279.733L445.259 291.953L458.316 296.297L472.25 293.519L472.979 281.745L471.988 279.392L469.077 279.295Z" fill="#7F3E3B"/>
<path d="M447.016 347.753H469.945C470.177 339.675 471.369 297.729 471.118 297.981C470.838 298.26 473.538 289.043 473.538 289.043V285.319L471.118 281.316C471.118 281.316 465.913 289.249 457.354 288.858C449.239 288.485 447.842 280.386 447.842 280.386L446.819 292.768L445.795 322.746L447.098 335.453L447.016 347.753Z" fill="#407BFF"/>
<path opacity="0.6" d="M447.016 347.753H469.945C470.177 339.675 471.369 297.729 471.118 297.981C470.838 298.26 473.538 289.043 473.538 289.043V285.319L471.118 281.316C471.118 281.316 465.913 289.249 457.354 288.858C449.239 288.485 447.842 280.386 447.842 280.386L446.819 292.768L445.795 322.746L447.098 335.453L447.016 347.753Z" fill="white"/>
<path d="M437.889 347.752H450.314C452.756 331.569 453.084 301.983 453.084 301.983C453.084 301.983 450.357 291.555 449.611 284.776C448.867 277.996 458.549 278.893 467.023 280.01C475.497 281.128 460.433 302.54 460.433 302.54C460.433 302.54 459.368 331.485 461.847 347.749H492.483C490.952 343.439 486.44 330.18 485.362 320.787C484.059 309.429 491.879 292.857 490.759 284.774C489.64 276.692 462.853 278.337 462.853 278.337C462.853 278.337 445.694 278.224 441.87 278.397C437.394 278.598 435.614 290.371 433.499 299.671C431.383 308.971 435.272 318.181 437.394 329.886C438.784 337.559 438.351 344.125 437.889 347.752Z" fill="#F7941D"/>
<path d="M451.53 278.305C457.111 278.303 462.852 278.341 462.852 278.341C462.852 278.341 466.281 278.133 470.731 278.232C472.503 279.446 474.843 282.25 472.978 288.207L469.097 289.696L469.808 293.514C469.808 293.514 465.341 300.597 460.408 303.283C460.423 302.808 460.433 302.544 460.433 302.544C460.433 302.544 475.497 281.132 467.023 280.014C458.549 278.897 448.867 278 449.611 284.78C450.356 291.559 453.083 301.987 453.083 301.987C453.083 301.987 453.082 302.1 453.079 302.303C450.691 300.172 448.659 296.406 447.184 291.932L448.767 287.533L445.259 285.602C445.258 285.599 445.813 280.425 451.53 278.305Z" fill="#407BFF"/>
<path d="M451.349 284.722C450.459 282.371 451.697 280.841 451.697 280.841C458.069 278.681 457.486 273.898 456.017 269.46L466.286 258.985C465.677 264.565 465.451 277.389 469.098 281.857V282.879C464.268 288.604 458.537 288.57 455.405 287.98C453.593 287.639 452.002 286.446 451.349 284.722Z" fill="#7F3E3B"/>
<path opacity="0.1" d="M456.017 269.46L464.172 261.143L466.06 261.819C466.001 262.823 465.962 263.918 465.946 265.069C464.913 267.186 462.435 270.16 456.635 271.654C456.468 270.922 456.257 270.187 456.017 269.46Z" fill="black"/>
<path d="M471.513 249.743C469.029 259.235 468.187 263.306 462.367 267.28C453.609 273.262 442.498 268.144 442.088 258.101C441.721 249.064 445.835 235.068 455.985 233.092C463.23 231.644 470.279 236.343 471.728 243.588C472.136 245.629 472.062 247.736 471.513 249.743Z" fill="#7F3E3B"/>
<path d="M448.959 252.191C447.914 253.84 446.645 255.337 445.19 256.64C445.88 257.379 446.86 257.774 447.868 257.72L448.959 252.191Z" fill="#630F0F"/>
<path d="M459.08 248.694C459.148 248.692 459.215 248.673 459.274 248.64C459.458 248.529 459.517 248.291 459.408 248.107C459.406 248.105 459.405 248.103 459.404 248.1C458.671 246.812 457.358 245.962 455.884 245.822C455.672 245.822 455.496 245.988 455.485 246.2C455.479 246.41 455.641 246.588 455.851 246.6C457.067 246.736 458.143 247.446 458.746 248.511C458.816 248.627 458.943 248.696 459.08 248.694Z" fill="#263238"/>
<path d="M443.357 245.822C443.425 245.82 443.492 245.801 443.551 245.768C444.597 245.145 445.877 245.061 446.996 245.541C447.185 245.643 447.42 245.573 447.522 245.383L447.525 245.379C447.62 245.185 447.544 244.951 447.352 244.849C445.998 244.248 444.439 244.337 443.162 245.087C442.97 245.185 442.895 245.42 442.994 245.61C443.064 245.746 443.205 245.828 443.357 245.822Z" fill="#263238"/>
<path d="M451.843 260.327C451.386 260.328 450.931 260.288 450.482 260.208C450.353 260.187 450.264 260.065 450.287 259.935C450.287 259.933 450.288 259.931 450.288 259.927C450.31 259.8 450.43 259.713 450.558 259.733C452.569 260.127 454.647 259.546 456.163 258.168C456.253 258.069 456.405 258.062 456.503 258.151C456.602 258.241 456.609 258.394 456.519 258.491C455.255 259.685 453.579 260.342 451.843 260.327Z" fill="#263238"/>
<path d="M468.318 257.164C468.318 257.164 464.78 253.752 465.432 247.517C465.432 247.517 461.615 243.609 461.802 239.42C461.802 239.42 460.671 242.757 461.795 245.138C461.795 245.138 451.887 244.417 452.118 239.42C452.118 239.42 451.467 241.935 452.956 243.238C452.956 243.238 444.151 243.611 445.341 239.048C446.531 234.486 453.432 232.252 453.432 232.252C453.432 232.252 460.008 226.666 469.096 236.535C469.096 236.535 479.801 243.218 472.213 254.362L468.318 257.164Z" fill="#263238"/>
<path d="M472.288 257.786C471.404 259.465 469.889 260.723 468.077 261.284C465.669 262.007 464.416 259.869 465.043 257.569C465.604 255.506 467.537 252.635 469.978 252.915C471.747 253.173 472.973 254.817 472.715 256.588C472.653 257.013 472.508 257.42 472.288 257.786Z" fill="#7F3E3B"/>
<path d="M456.092 250.84C456.009 251.655 455.503 252.272 454.961 252.22C454.418 252.169 454.063 251.459 454.157 250.633C454.251 249.805 454.746 249.2 455.277 249.253C455.809 249.306 456.175 250.013 456.092 250.84Z" fill="#2E353A"/>
<path d="M446.819 249.871C446.735 250.686 446.229 251.303 445.698 251.25C445.166 251.197 444.799 250.491 444.882 249.664C444.964 248.837 445.471 248.232 446.002 248.284C446.534 248.336 446.913 249.043 446.819 249.871Z" fill="#2E353A"/>
<path d="M446.233 248.351L444.324 247.581C444.324 247.581 445.178 249.22 446.233 248.351Z" fill="#2E353A"/>
<path d="M455.506 249.322L453.598 248.552C453.598 248.552 454.453 250.191 455.506 249.322Z" fill="#2E353A"/>
<path d="M467.489 265.731C469.24 265.731 470.665 264.306 470.665 262.555C470.665 261.757 470.368 260.993 469.827 260.405L469.415 260.784C469.861 261.267 470.106 261.897 470.106 262.555C470.106 263.998 468.933 265.173 467.489 265.173C466.046 265.173 464.872 263.999 464.872 262.555C464.872 261.112 466.046 259.938 467.489 259.938C467.861 259.938 468.221 260.015 468.558 260.165L468.787 259.656C468.378 259.473 467.941 259.38 467.489 259.38C465.738 259.38 464.313 260.804 464.313 262.555C464.313 264.306 465.738 265.731 467.489 265.731Z" fill="#407BFF"/>
<g opacity="0.6">
<path d="M467.489 265.731C469.24 265.731 470.665 264.306 470.665 262.555C470.665 261.757 470.368 260.993 469.827 260.405L469.415 260.784C469.861 261.267 470.106 261.897 470.106 262.555C470.106 263.998 468.933 265.173 467.489 265.173C466.046 265.173 464.872 263.999 464.872 262.555C464.872 261.112 466.046 259.938 467.489 259.938C467.861 259.938 468.221 260.015 468.558 260.165L468.787 259.656C468.378 259.473 467.941 259.38 467.489 259.38C465.738 259.38 464.313 260.804 464.313 262.555C464.313 264.306 465.738 265.731 467.489 265.731Z" fill="white"/>
</g>
<path d="M465.3 313.753L456.667 314.128L453.774 309.466C453.396 308.856 452.763 308.451 452.052 308.36L451.483 308.288C450.528 308.167 449.594 308.635 449.118 309.472L446.985 313.224C446.544 313.999 446.574 314.955 447.062 315.701L448.061 317.226C448.547 317.97 449.36 318.44 450.248 318.49L454.664 318.741L464.422 320.054L465.3 313.753Z" fill="#7F3E3B"/>
<path d="M480.653 282.247L484.943 313.025L459.906 313.031L459.305 320.31C459.305 320.31 493.697 326.97 495.335 321.037C496.973 315.104 497.573 296.192 495.096 288.608C493.849 284.787 490.151 280.407 483.043 279.729C481.626 279.594 480.456 280.836 480.653 282.247Z" fill="#407BFF"/>
<path d="M371.258 104.743H343.775L316.059 421.533H343.542C356.281 421.533 367.511 411.206 368.626 398.467L392.305 127.81C393.421 115.071 383.997 104.743 371.258 104.743Z" fill="#263238"/>
<path d="M388.277 136.518C388.384 135.298 389.46 134.308 390.681 134.308C391.902 134.308 392.805 135.298 392.699 136.518L390.842 157.743C390.735 158.964 389.659 159.954 388.439 159.954C387.218 159.954 386.315 158.964 386.422 157.743L388.277 136.518Z" fill="#407BFF"/>
<path opacity="0.3" d="M388.277 136.518C388.384 135.298 389.46 134.308 390.681 134.308C391.902 134.308 392.805 135.298 392.699 136.518L390.842 157.743C390.735 158.964 389.659 159.954 388.439 159.954C387.218 159.954 386.315 158.964 386.422 157.743L388.277 136.518Z" fill="white"/>
<path d="M337.915 421.533H224.676C211.936 421.533 202.513 411.205 203.628 398.467L227.308 127.809C228.422 115.07 239.653 104.743 252.392 104.743H365.631C378.369 104.743 387.794 115.071 386.679 127.809L362.999 398.467C361.884 411.206 350.654 421.533 337.915 421.533Z" fill="#407BFF"/>
<path d="M365.165 110.035H335.732C333.805 110.035 332.051 111.468 331.641 113.38L331.442 114.302C330.438 118.972 326.157 122.471 321.45 122.471H293.468C288.761 122.471 285.093 118.972 284.904 114.302L284.868 113.38C284.792 111.468 283.289 110.035 281.361 110.035H251.927C242.111 110.035 233.457 117.993 232.598 127.809L208.92 398.466C208.061 408.282 215.322 416.24 225.139 416.24H338.378C348.194 416.24 356.849 408.282 357.708 398.466L381.387 127.809C382.244 117.993 374.982 110.035 365.165 110.035Z" fill="#407BFF"/>
<path opacity="0.7" d="M365.165 110.035H335.732C333.805 110.035 332.051 111.468 331.641 113.38L331.442 114.302C330.438 118.972 326.157 122.471 321.45 122.471H293.468C288.761 122.471 285.093 118.972 284.904 114.302L284.868 113.38C284.792 111.468 283.289 110.035 281.361 110.035H251.927C242.111 110.035 233.457 117.993 232.598 127.809L208.92 398.466C208.061 408.282 215.322 416.24 225.139 416.24H338.378C348.194 416.24 356.849 408.282 357.708 398.466L381.387 127.809C382.244 117.993 374.982 110.035 365.165 110.035Z" fill="white"/>
<g opacity="0.2">
<path d="M300.682 114.587C301.62 113.689 301.713 112.266 300.891 111.407C300.068 110.547 298.642 110.578 297.704 111.476C296.767 112.373 296.673 113.797 297.496 114.656C298.318 115.515 299.745 115.484 300.682 114.587Z" fill="black"/>
<path d="M317.581 110.786C316.692 110.786 310.758 110.786 309.87 110.786C308.628 110.786 307.533 111.793 307.424 113.036C307.316 114.278 308.234 115.284 309.476 115.284C310.247 115.284 316.415 115.284 317.187 115.284C318.429 115.284 319.524 114.278 319.633 113.036C319.742 111.793 318.823 110.786 317.581 110.786Z" fill="black"/>
</g>
<path d="M245.394 122.428H247.775L247.983 120.047H245.602L245.394 122.428Z" fill="#407BFF"/>
<path d="M250.363 120.049L250.155 122.431H252.537L252.745 120.049L252.954 117.668H250.572L250.363 120.049Z" fill="#407BFF"/>
<path d="M255.543 115.285L255.335 117.667L255.127 120.048L254.919 122.429H257.3L257.508 120.048L257.718 117.667L257.925 115.285H255.543Z" fill="#407BFF"/>
<path d="M357.939 115.441L357.786 117.188H356.622L356.316 120.68H357.481L357.328 122.427H367.806L368.417 115.441H357.939ZM362.139 120.68H358.646L358.952 117.188H362.445L362.139 120.68Z" fill="#407BFF"/>
<g opacity="0.4">
<path d="M293.551 122.472L215.381 413.138C218.064 415.093 221.416 416.241 225.138 416.241H231.25L310.255 122.472H293.551Z" fill="white"/>
<path d="M365.167 110.035H335.733C333.805 110.035 332.052 111.468 331.64 113.381L331.442 114.303C330.463 118.853 326.373 122.281 321.81 122.455L242.802 416.241H303.065L381.387 125.001C380.782 116.523 374.026 110.035 365.167 110.035Z" fill="white"/>
</g>
<path d="M246.851 188.932L243.323 188.166C242.368 187.959 241.822 186.95 242.172 186.037L247.092 173.167L252.73 174.394L248.718 187.832C248.481 188.628 247.667 189.109 246.851 188.932Z" fill="#407BFF"/>
<path d="M260.521 172.463C259.543 172.25 258.922 171.284 259.135 170.306L259.613 168.103C259.826 167.125 260.792 166.504 261.77 166.717C262.748 166.929 263.369 167.895 263.156 168.873L262.678 171.076C262.465 172.054 261.5 172.675 260.521 172.463Z" fill="#407BFF"/>
<path d="M257.037 161.505C257.037 161.505 243.631 159.977 238.94 157.57C227.901 151.903 217.362 138.381 215.125 137.894C211.481 137.102 206.511 145.731 204.024 157.168C201.537 168.604 202.474 178.518 206.118 179.311C208.357 179.797 223.558 171.874 235.953 171.303C241.22 171.061 254.05 175.238 254.05 175.238L257.037 161.505Z" fill="#407BFF"/>
<path opacity="0.3" d="M257.037 161.505C257.037 161.505 243.631 159.977 238.94 157.57C227.901 151.903 217.362 138.381 215.125 137.894C211.481 137.102 206.511 145.731 204.024 157.168C201.537 168.604 202.474 178.518 206.118 179.311C208.357 179.797 223.558 171.874 235.953 171.303C241.22 171.061 254.05 175.238 254.05 175.238L257.037 161.505Z" fill="white"/>
<path d="M217.218 160.037C214.731 171.474 209.761 180.103 206.118 179.311C202.474 178.518 201.537 168.604 204.024 157.168C206.511 145.731 211.481 137.102 215.125 137.894C218.768 138.687 219.705 148.601 217.218 160.037Z" fill="#407BFF"/>
<path opacity="0.4" d="M217.218 160.037C214.731 171.474 209.761 180.103 206.118 179.311C202.474 178.518 201.537 168.604 204.024 157.168C206.511 145.731 211.481 137.102 215.125 137.894C218.768 138.687 219.705 148.601 217.218 160.037Z" fill="black"/>
<path d="M254.856 159.949L248.64 158.597C246.947 158.229 245.276 159.362 245.037 161.078C244.82 162.639 244.534 164.252 244.175 165.9C243.817 167.546 243.408 169.134 242.957 170.644C242.462 172.304 243.51 174.029 245.203 174.398L252.58 176.002C257 176.962 260.182 173.854 261.085 169.4C261.959 165.09 259.153 160.883 254.856 159.949Z" fill="#263238"/>
<path d="M210.816 157.708L210.426 159.498C210.201 160.539 210.751 161.593 211.734 162.001L216.257 163.88C216.606 162.642 216.93 161.361 217.218 160.037C217.506 158.713 217.742 157.413 217.94 156.142L213.044 155.974C211.98 155.939 211.041 156.668 210.816 157.708Z" fill="#263238"/>
<path opacity="0.8" d="M210.816 157.708L210.426 159.498C210.201 160.539 210.751 161.593 211.734 162.001L216.257 163.88C216.606 162.642 216.93 161.361 217.218 160.037C217.506 158.713 217.742 157.413 217.94 156.142L213.044 155.974C211.98 155.939 211.041 156.668 210.816 157.708Z" fill="white"/>
<path opacity="0.2" d="M214.23 159.387C213.983 160.524 213.706 161.622 213.413 162.697L216.257 163.879C216.606 162.641 216.929 161.36 217.217 160.036C217.506 158.712 217.742 157.412 217.94 156.141L214.862 156.035C214.682 157.135 214.479 158.25 214.23 159.387Z" fill="black"/>
<path d="M322.885 160.093C322.885 160.093 326.302 161.614 329.754 159.352C333.364 156.987 340.147 159.963 338.098 169.589C334.57 186.15 327.204 198.033 331.979 203.047C331.979 203.047 316.082 203.774 318.434 189.734C320.198 179.204 332.159 167.25 329.274 164.871C328.312 164.078 326.915 164.489 322.398 164.489L322.885 160.093Z" fill="#263238"/>
<path d="M322.398 164.488C325.195 164.488 327.299 164.757 328.854 165.263C329.861 162.359 329.807 159.817 329.696 158.622C326.019 159.023 322.884 160.092 322.884 160.092L322.398 164.488Z" fill="#407BFF"/>
<path d="M307.427 148.025C307.427 148.025 300.817 146.135 305.176 141.872C310.868 136.306 318.969 146.723 318.969 146.723C318.969 146.723 337.932 155.015 322.277 174.241C322.277 174.241 316.628 184.357 315.447 180.424C314.266 176.49 322.13 165.318 322.13 165.318L321.661 155.325L319.484 151.427L312.652 147.531L307.427 148.025Z" fill="#263238"/>
<path d="M281.212 204.337C279.326 201.256 275.3 200.288 272.219 202.173L272.119 202.234C270.069 203.489 267.877 204.898 265.712 206.183L259.183 210.103C256.129 211.905 253.053 213.639 249.962 215.333C249.779 213.154 249.762 210.717 249.855 208.279C249.938 205.527 250.13 202.722 250.347 199.902C250.534 197.086 250.832 194.221 251.073 191.427L251.08 191.353C251.203 189.924 250.365 188.533 248.954 188.013C247.263 187.391 245.387 188.258 244.765 189.95C243.723 192.783 242.9 195.582 242.082 198.448C241.301 201.312 240.626 204.216 240.073 207.201C239.56 210.203 239.09 213.228 239.084 216.636C239.113 218.369 239.138 220.133 239.853 222.536C240.285 223.738 240.797 225.273 242.678 226.937C243.608 227.738 244.923 228.41 246.249 228.668C247.569 228.925 248.714 228.828 249.682 228.645C249.943 228.593 250.227 228.512 250.483 228.407L250.87 228.249C253.372 227.218 255.871 226.174 258.295 225.008C260.737 223.872 263.14 222.674 265.504 221.41C267.878 220.165 270.209 218.848 272.511 217.479C274.814 216.072 277.054 214.729 279.366 213.123C282.181 211.158 283.029 207.304 281.212 204.337Z" fill="#CE7A63"/>
<path d="M286.974 195.758C290.933 203.74 285.233 210.671 274.78 221.768C265.468 213.984 263.952 204.358 263.952 204.358C263.952 204.358 276 194.383 286.974 195.758Z" fill="#407BFF"/>
<path opacity="0.2" d="M287.355 205.235C283.48 202.877 279.147 201.82 276.094 205.672C272.69 209.964 269.908 212.509 267.963 213.989C269.559 216.515 271.751 219.238 274.779 221.77C281.022 215.142 285.549 210.003 287.355 205.235Z" fill="black"/>
<path d="M248.083 176.419L250.771 178.192C251.783 178.859 252.408 179.974 252.453 181.184L252.659 186.841C252.741 189.102 251.723 191.263 249.927 192.639L248.816 193.492C244.155 190.855 241.062 184.573 241.062 184.573L239.982 182.88C239.02 181.372 239.391 179.478 240.837 178.529L244.163 176.344C245.312 175.591 246.872 175.62 248.083 176.419Z" fill="#CE7A63"/>
<path d="M277.756 416.242C283.853 397.383 288.006 376.532 283.871 361.278C309.042 287.358 297.69 265.837 297.69 265.837L267.736 254.912C267.736 254.912 263.454 321.488 262.166 353.677C261.445 371.692 258.371 395.096 254.832 416.242H277.756Z" fill="#F7941D"/>
<path opacity="0.5" d="M293.293 293.185L287.216 283.386L283.492 291.03C283.492 291.03 279.986 320.38 286.227 354.18C292.06 336.162 295.608 321.505 297.677 309.682L293.293 293.185Z" fill="black"/>
<path d="M296.166 416.243H318.868C321.186 396.695 321.212 375.655 314.286 361.587C324.834 284.214 309.569 265.267 309.569 265.267L278.077 260.28C278.077 260.28 286.627 326.443 291.527 358.283C294.064 374.769 295.507 396.162 296.166 416.243Z" fill="#F7941D"/>
<path d="M272.925 210.627C272.132 214.798 271.102 217.905 270.099 228.003C269.088 236.524 268.35 244.952 267.375 259.031L310.01 265.781C311.054 253.635 314.621 240.17 326.555 214.358C329.322 208.373 326.316 201.73 320.097 200.087C318.436 199.649 316.667 199.222 314.842 198.842C307.748 197.365 301.924 196.208 295.481 195.777C293.347 195.635 291.124 195.555 288.993 195.514C281.302 195.368 274.345 203.151 272.925 210.627Z" fill="#407BFF"/>
<path d="M316.935 176.829C314.263 182.791 310.387 193.878 313.778 198.674C313.778 198.674 308.018 196.854 294.264 202.619C291.461 196.842 294.417 195.611 294.417 195.611C301.749 195.071 302.77 189.95 302.687 184.975L316.935 176.829Z" fill="#CE7A63"/>
<path d="M297.145 201.475C298.746 201.968 299.76 203.279 300.4 204.682C301.418 206.914 304.099 207.818 306.232 206.602C309.714 204.616 314.206 201.781 316.426 199.265C315.077 198.261 313.171 196.395 313.171 196.395C313.171 196.395 299.93 199.474 297.145 201.475Z" fill="white"/>
<path d="M293.328 200.19C293.328 200.19 292.037 200.327 290.551 201.425C289.513 202.191 288.077 201.159 288.507 199.944C289.977 195.781 292.51 195.288 292.51 195.288C292.51 195.288 293.95 194.569 296.326 195.34C292.78 196.547 293.328 200.19 293.328 200.19Z" fill="white"/>
<path opacity="0.2" d="M311.126 180.152L302.694 184.969C302.717 186.148 302.673 187.331 302.49 188.46C305.233 188.501 309.557 186.199 310.485 183.498C310.949 182.15 311.201 180.825 311.126 180.152Z" fill="black"/>
<path d="M324.233 165.167C320.751 174.926 319.485 179.119 312.982 183.034C303.2 188.924 291.947 183.207 292.436 172.774C292.877 163.382 298.497 149.001 309.388 147.32C320.117 145.667 327.715 155.409 324.233 165.167Z" fill="#CE7A63"/>
<path d="M311.122 164.81C310.865 165.641 310.22 166.213 309.681 166.087C309.142 165.961 308.914 165.184 309.171 164.352C309.427 163.521 310.073 162.949 310.611 163.075C311.15 163.201 311.378 163.978 311.122 164.81Z" fill="#263238"/>
<path d="M300.71 162.026C300.453 162.858 299.808 163.429 299.269 163.304C298.73 163.177 298.502 162.4 298.759 161.569C299.015 160.737 299.661 160.166 300.199 160.292C300.738 160.418 300.967 161.195 300.71 162.026Z" fill="#263238"/>
<path d="M300.423 160.391L298.621 159.351C298.621 159.351 299.156 161.15 300.423 160.391Z" fill="#263238"/>
<path d="M303.729 163.742C303.729 163.742 301.225 166.995 299.153 168.36C299.925 169.641 301.918 169.606 301.918 169.606L303.729 163.742Z" fill="#BA4D3C"/>
<path d="M314.279 159.96C314.149 159.942 314.029 159.871 313.953 159.755C312.78 157.934 310.918 157.989 310.896 157.989C310.62 157.999 310.397 157.786 310.405 157.508C310.415 157.232 310.649 156.998 310.929 156.986C311.026 156.983 313.364 156.911 314.82 159.171C314.965 159.397 314.888 159.71 314.65 159.871C314.534 159.95 314.403 159.978 314.279 159.96Z" fill="#263238"/>
<path d="M298.473 155.048C298.358 154.998 298.264 154.908 298.217 154.786C298.121 154.536 298.261 154.25 298.53 154.148C301.231 153.121 303.157 154.38 303.239 154.435C303.467 154.588 303.513 154.892 303.338 155.115C303.166 155.337 302.841 155.392 302.613 155.24C302.538 155.19 301.029 154.235 298.88 155.052C298.743 155.105 298.596 155.099 298.473 155.048Z" fill="#263238"/>
<path d="M310.836 163.176L309.035 162.136C309.035 162.136 309.569 163.934 310.836 163.176Z" fill="#263238"/>
<path d="M272.058 242.682H261.888C260.929 242.682 259.984 241.904 259.778 240.944L255.066 218.931C254.86 217.971 255.472 217.192 256.433 217.192H266.603C267.562 217.192 268.507 217.971 268.713 218.931L273.425 240.944C273.631 241.904 273.019 242.682 272.058 242.682Z" fill="#263238"/>
<path d="M270.883 242.682H260.713C259.754 242.682 258.809 241.904 258.604 240.944L253.891 218.931C253.686 217.971 254.297 217.192 255.258 217.192H265.428C266.388 217.192 267.332 217.971 267.538 218.931L272.25 240.944C272.456 241.904 271.844 242.682 270.883 242.682Z" fill="#263238"/>
<path opacity="0.2" d="M270.883 242.682H260.713C259.754 242.682 258.809 241.904 258.604 240.944L253.891 218.931C253.686 217.971 254.297 217.192 255.258 217.192H265.428C266.388 217.192 267.332 217.971 267.538 218.931L272.25 240.944C272.456 241.904 271.844 242.682 270.883 242.682Z" fill="white"/>
<path d="M267.237 229.713L270.381 229.014C271.562 228.751 272.8 229.077 273.699 229.887L277.907 233.672C279.589 235.186 280.434 237.42 280.174 239.668L280.013 241.06C274.878 242.576 268.212 240.431 268.212 240.431L266.243 240.03C264.491 239.672 263.388 238.088 263.711 236.389L264.455 232.479C264.715 231.128 265.821 230.028 267.237 229.713Z" fill="#CE7A63"/>
<path d="M321.433 206.808C317.838 206.469 314.649 209.109 314.312 212.704L314.293 212.905C314.182 214.075 314.026 215.516 313.875 216.844C313.719 218.197 313.532 219.554 313.327 220.907C312.931 223.614 312.445 226.302 311.913 228.962C311.365 231.621 310.698 234.222 309.969 236.78C309.349 238.829 308.634 240.802 307.86 242.729C307.098 242.778 306.087 242.717 305.029 242.553C302.517 242.169 298.794 241.44 296.048 240.559C293.281 239.694 290.495 238.684 287.708 237.627C284.916 236.6 282.106 235.43 279.373 234.326L279.293 234.293C277.947 233.749 276.354 234.158 275.452 235.38C274.382 236.827 274.689 238.869 276.136 239.938C278.719 241.847 281.327 243.504 284.021 245.166C286.723 246.79 289.504 248.307 292.413 249.703C295.345 251.064 299.291 252.366 302.757 253.268C304.503 253.709 306.349 254.091 308.629 254.111C309.771 254.111 311.058 254.01 312.557 253.539C314.021 253.101 315.822 252.115 317.161 250.51C317.366 250.262 317.567 249.97 317.725 249.677L317.843 249.46C319.379 246.612 320.717 243.71 321.794 240.766C322.869 237.827 323.798 234.861 324.533 231.878C325.287 228.898 325.886 225.898 326.361 222.886C326.585 221.377 326.79 219.868 326.962 218.346C327.15 216.802 327.265 215.361 327.351 213.645C327.518 210.174 324.927 207.137 321.433 206.808Z" fill="#CE7A63"/>
<path d="M323.392 201.606C330.668 206.75 331.013 214.44 327.084 229.17C321.829 231.803 309.057 228.47 309.057 228.47C309.057 228.47 313.082 205.608 323.392 201.606Z" fill="#407BFF"/>
<path d="M297.238 172.425C297.238 172.425 300.708 171.733 310.35 172.028C309.145 174.898 306.967 177.175 302.022 177.025C299.546 177.186 297.408 175.311 297.246 172.835C297.237 172.699 297.234 172.561 297.238 172.425Z" fill="#263238"/>
<path d="M304.369 174.775C302.472 174.614 300.574 175.055 298.941 176.033C299.841 176.659 300.911 176.993 302.006 176.99C303.898 177.157 305.796 176.716 307.422 175.733C306.531 175.098 305.462 174.762 304.369 174.775Z" fill="#BA4D3C"/>
<path d="M297.681 172.36C297.856 173.089 298.423 173.66 299.151 173.841C302.014 173.914 304.879 173.75 307.715 173.353C308.632 173.292 309.457 172.779 309.919 171.985C305.836 171.796 301.745 171.92 297.681 172.36Z" fill="white"/>
<path d="M309.476 146.669C308.849 146.766 308.241 146.907 307.648 147.084V147.643C309.013 147.626 310.527 147.802 312.214 148.317C320.348 150.802 321.659 155.328 318.896 162.138C317.588 165.36 316.884 172.193 318.39 173.474C318.779 173.804 319.955 173.757 321.481 173.507C322.488 171.186 323.453 168.419 324.687 164.957C328.257 154.956 320.47 144.972 309.476 146.669Z" fill="#263238"/>
<path d="M325.164 174.088C323.456 175.835 321.207 176.63 319.335 176.619C316.519 176.603 316.068 173.703 317.652 171.284C319.078 169.107 322.261 166.491 324.701 167.673C327.106 168.836 327.116 172.092 325.164 174.088Z" fill="#CE7A63"/>
<g opacity="0.9">
<path d="M307.813 224.058C288.016 222.834 279.075 219.18 275.507 217.114C275.396 217.049 275.293 216.975 275.2 216.894C274.174 215.994 275.466 214.36 276.648 215.041C279.766 216.839 288.355 220.497 307.958 221.711C308.604 221.751 309.106 222.301 309.069 222.948C309.033 223.598 308.464 224.098 307.813 224.058Z" fill="white"/>
</g>
<g opacity="0.9">
<path d="M306.788 235.249C306.766 235.902 306.206 236.419 305.552 236.388C288.292 235.581 276.389 230.488 272.824 228.771C272.217 228.479 271.988 227.74 272.309 227.148C272.609 226.597 273.288 226.38 273.854 226.65C277.245 228.258 289.001 233.254 305.66 234.04C306.304 234.069 306.811 234.605 306.788 235.249Z" fill="white"/>
</g>
<g opacity="0.9">
<path d="M286.853 254.866C277.688 253.071 272.97 251.852 270.984 251.29C270.338 251.106 269.982 250.421 270.198 249.783C270.398 249.19 271.022 248.854 271.625 249.025C273.54 249.566 278.238 250.783 287.304 252.559C287.94 252.683 288.361 253.3 288.239 253.936C288.114 254.573 287.491 254.991 286.853 254.866Z" fill="white"/>
</g>
<path d="M307.789 150.635C307.033 151.037 306.011 150.576 305.648 149.8C305.285 149.024 305.488 148.069 305.982 147.369C306.477 146.669 307.22 146.186 307.984 145.797C307.511 146.502 306.61 147.695 306.63 148.544C306.651 149.393 306.977 150.883 307.789 150.635Z" fill="#263238"/>
<path d="M317.617 174.591C317.663 175.028 317.178 175.393 316.744 175.326C316.31 175.259 315.977 174.874 315.847 174.454C315.717 174.034 315.752 173.583 315.8 173.147C315.91 172.149 316.089 171.144 316.519 170.237C316.951 169.331 317.662 168.524 318.595 168.153C318.953 168.478 318.969 169.144 318.772 169.586C318.575 170.028 318.228 170.382 317.954 170.78C317.237 171.822 317.043 173.204 317.443 174.404C317.593 174.413 317.468 174.581 317.617 174.591Z" fill="#263238"/>
<path d="M185.115 249.179H101.381C94.9523 249.179 89.7402 254.391 89.7402 260.82V324.467C89.7402 330.897 94.9523 336.109 101.381 336.109H164.608C165.849 346.287 174.504 354.177 185.017 354.177C185.483 354.177 185.939 354.138 186.397 354.107C183.125 349.797 180.456 343.552 178.707 336.109H185.115C191.544 336.109 196.756 330.897 196.756 324.467V260.82C196.756 254.391 191.544 249.179 185.115 249.179Z" fill="#407BFF"/>
<path opacity="0.4" d="M185.115 249.179H101.381C94.9523 249.179 89.7402 254.391 89.7402 260.82V324.467C89.7402 330.897 94.9523 336.109 101.381 336.109H164.608C165.849 346.287 174.504 354.177 185.017 354.177C185.483 354.177 185.939 354.138 186.397 354.107C183.125 349.797 180.456 343.552 178.707 336.109H185.115C191.544 336.109 196.756 330.897 196.756 324.467V260.82C196.756 254.391 191.544 249.179 185.115 249.179Z" fill="white"/>
<path d="M201.887 276.225L208.406 270.199L213.969 280.506C213.969 280.506 207.52 285.443 203.693 282.408L201.887 276.225Z" fill="#FF8B7B"/>
<path d="M201.887 276.226L197.453 285.654L203.538 290.683L208.851 282.071L201.887 276.226Z" fill="#FF8B7B"/>
<path d="M214.596 271.593L215.669 275.492C216.2 277.398 215.481 279.52 213.969 280.507L211.576 282.073L204.916 270.393L210.623 268.952C212.35 268.483 214.059 269.62 214.596 271.593Z" fill="#FF8B7B"/>
<path d="M201.887 276.224C201.887 276.224 204.208 268.959 203.867 266.735C203.664 265.408 205.02 265.626 206.146 266.018C207.02 266.323 207.613 267.123 207.65 268.048C207.746 270.427 207.684 274.985 205.849 275.282C203.359 275.686 201.887 276.224 201.887 276.224Z" fill="#FF8B7B"/>
<path d="M209.495 283.783C207.729 281.81 205.338 280.364 202.548 279.783L200.565 279.37C199.437 279.136 199.169 279.404 199.025 279.71L198.461 280.591L197.304 282.351C196.518 283.518 195.747 284.693 194.941 285.836C193.378 288.153 191.741 290.393 190.09 292.526C188.451 294.653 186.728 296.669 185.024 298.292C184.862 298.448 184.698 298.597 184.536 298.745C183.934 298.077 183.336 297.391 182.757 296.671C181.069 294.557 179.466 292.267 177.942 289.88C176.425 287.485 171.511 280.403 170.17 277.847C169.496 276.572 168.845 275.281 168.222 273.985L167.317 272.041C167.038 271.424 166.716 270.691 166.524 270.219C166.489 270.132 166.435 270.006 166.396 269.919C164.406 265.471 159.188 263.479 154.742 265.469C150.294 267.458 148.302 272.676 150.292 277.123C150.719 278.08 151.052 278.761 151.437 279.552L152.578 281.81C153.352 283.299 154.152 284.767 154.981 286.22C156.644 289.125 161.964 296.529 163.914 299.312C165.869 302.093 168.001 304.805 170.391 307.404C172.785 310 175.43 312.504 178.518 314.761L178.891 315.032C180.66 316.31 182.977 316.791 185.237 316.144C188.201 315.295 190.154 313.966 191.806 312.71C193.446 311.429 194.755 310.124 195.94 308.816C198.309 306.201 200.192 303.555 201.948 300.891C203.681 298.22 205.197 295.498 206.632 292.761C207.326 291.38 208.008 290 208.642 288.595L209.579 286.478L210.037 285.407C210.228 285.06 210.296 284.675 209.495 283.783Z" fill="#F7941D"/>
<path opacity="0.4" d="M165.909 280.047L159.441 284.612L157.521 289.041C157.842 289.625 158.147 290.218 158.478 290.798C160.141 293.703 161.96 296.53 163.91 299.312C165.865 302.093 167.997 304.805 170.387 307.404C171.503 308.614 172.679 309.8 173.923 310.953C170.801 303.505 165.909 280.047 165.909 280.047Z" fill="black"/>
<path d="M108.098 315.796C108.608 327.519 106.745 327.014 106.7 336.11H164.012C167.125 308.346 165.667 304.077 165.724 285.653C165.756 275.274 164.134 264.693 153.812 263.613C142.338 262.413 127.994 262.537 117.353 263.85C109.718 264.792 104.31 271.818 105.432 279.428C107.744 295.108 106.484 303.988 108.098 315.796Z" fill="#F7941D"/>
<path opacity="0.9" d="M148.585 263.173C141.148 262.675 133.009 262.662 125.649 263.108C125.813 265.446 127.603 271.386 140.619 276.427C140.619 276.427 143.518 270.124 145.968 272.966C145.968 272.966 147.929 269.341 152.142 276.004C152.142 276.004 158.426 269.283 148.585 263.173Z" fill="#407BFF"/>
<path opacity="0.4" d="M117.615 279.849C118.872 290.753 111.905 308.982 108.165 317.793C108.155 317.175 108.134 316.506 108.102 315.794C107.092 308.425 107.206 302.201 106.866 294.76L117.615 279.849Z" fill="black"/>
<path d="M131.271 242.271C131.283 252.105 129.426 257.765 127.226 263.083C127.014 263.594 127.13 264.19 127.54 264.559C131.295 267.945 137.034 270.71 144.827 270.816C152.529 270.919 152.087 268.512 150.264 265.803C150.005 265.419 149.652 265.104 149.252 264.866C143.984 261.74 143.796 257.557 145.267 255.032L131.271 242.271Z" fill="#FF8B7B"/>
<path opacity="0.2" d="M131.275 242.276L145.272 255.037C144.442 256.449 144.137 258.396 144.977 260.386C142.218 260.475 139.392 259.594 136.923 257.497C133.317 254.431 132.088 250.808 131.19 245.696C131.252 244.615 131.273 243.483 131.275 242.276Z" fill="black"/>
<path d="M127.098 235.685C127.719 245.084 126.383 246.59 131.161 251.354C138.349 258.52 150.045 259.89 151.7 250.358C153.19 241.779 154.014 226.241 144.778 222.622C135.681 219.058 126.477 226.287 127.098 235.685Z" fill="#FF8B7B"/>
<path d="M149.943 245.804C149.943 245.804 146.636 244.756 137.271 244.358C138.267 247.729 140.232 250.528 145.03 250.678C149.828 250.83 149.943 245.804 149.943 245.804Z" fill="#263238"/>
<path d="M142.886 247.973C145.201 248.045 146.855 248.739 148.061 249.802C147.361 250.357 146.375 250.718 145.034 250.676C142.719 250.603 141.075 249.925 139.869 248.848C140.569 248.292 141.545 247.93 142.886 247.973Z" fill="#FF5652"/>
<path d="M149.521 245.691C149.234 246.388 148.948 247.087 148.004 247.277C146.048 247.351 141.073 246.485 139.741 246.096C138.887 245.894 138.165 245.517 137.675 244.376C144.886 244.703 148.392 245.414 149.521 245.691Z" fill="white"/>
<path d="M146.262 237.057C146.262 237.057 148.149 240.367 149.917 241.835C148.981 243.005 147.079 242.823 147.079 242.823L146.262 237.057Z" fill="#FF5652"/>
<path d="M136.98 233.002C136.904 232.986 136.83 232.949 136.767 232.894C136.575 232.721 136.559 232.424 136.734 232.228C138.488 230.281 140.646 230.581 140.736 230.595C140.994 230.634 141.169 230.874 141.128 231.131C141.087 231.388 140.846 231.564 140.589 231.527C140.519 231.518 138.834 231.302 137.434 232.856C137.315 232.986 137.14 233.036 136.98 233.002Z" fill="#263238"/>
<path d="M152.595 234.673C152.445 234.699 152.285 234.651 152.174 234.531C150.763 233.013 149.085 233.275 149.013 233.287C148.757 233.33 148.514 233.158 148.473 232.902C148.431 232.646 148.603 232.402 148.858 232.356C148.951 232.342 151.097 231.981 152.866 233.884C153.042 234.073 153.03 234.373 152.839 234.551C152.769 234.618 152.683 234.658 152.595 234.673Z" fill="#263238"/>
<path d="M90.6529 317.705C90.667 318.143 90.7305 318.586 90.8481 319.028C91.9841 323.288 93.46 326.605 94.9758 329.979C95.832 331.849 96.7163 333.674 97.6171 335.477C98.8002 335.882 100.063 336.112 101.383 336.112H114.058C113.638 335.175 113.217 334.235 112.8 333.301C111.41 330.231 110.111 327.15 108.94 324.106C107.939 321.505 107.019 318.824 106.468 316.535C106.561 315.805 106.763 314.716 107.06 313.623C107.436 312.203 107.924 310.676 108.488 309.128C109.615 306.031 110.959 302.849 112.375 299.674C113.799 296.496 115.344 293.329 116.919 290.167C118.478 287.023 120.143 283.802 121.775 280.82L121.831 280.718C121.863 280.66 121.893 280.601 121.924 280.541C124.145 276.205 122.431 270.89 118.095 268.668C113.759 266.447 108.443 268.162 106.222 272.498C104.451 275.955 102.862 279.254 101.273 282.681C99.7057 286.091 98.2263 289.553 96.808 293.083C95.391 296.618 94.0644 300.222 92.9225 304.048C92.3475 305.959 91.8206 307.936 91.3855 310.066C90.9704 312.224 90.5717 314.444 90.6481 317.451L90.6529 317.705Z" fill="#F7941D"/>
<path d="M122.83 241.98C123.761 244.235 125.5 245.834 127.173 246.554C129.691 247.637 131.075 245.172 130.48 242.353C129.945 239.817 127.989 236.197 125.413 236.321C122.874 236.444 121.765 239.403 122.83 241.98Z" fill="#FF8B7B"/>
<path d="M139.202 236.198C139.151 237.015 139.55 237.706 140.094 237.744C140.639 237.78 141.104 237.14 141.147 236.308C141.188 235.477 140.799 234.798 140.265 234.764C139.731 234.73 139.255 235.368 139.202 236.198Z" fill="#2E353A"/>
<path d="M148.511 236.747C148.461 237.566 148.859 238.257 149.393 238.291C149.927 238.326 150.403 237.687 150.456 236.858C150.509 236.029 150.108 235.348 149.574 235.314C149.04 235.28 148.553 235.915 148.511 236.747Z" fill="#2E353A"/>
<path d="M175.408 84.2266H91.6744C85.2452 84.2266 80.0332 89.4386 80.0332 95.8678V159.515C80.0332 165.944 85.2452 171.156 91.6744 171.156H154.901C156.142 181.335 164.797 189.225 175.31 189.225C175.776 189.225 176.232 189.186 176.69 189.155C173.418 184.845 170.749 178.599 169 171.156H175.408C181.837 171.156 187.049 165.944 187.049 159.515V95.8678C187.049 89.4374 181.837 84.2266 175.408 84.2266Z" fill="#407BFF"/>
<path opacity="0.4" d="M175.408 84.2266H91.6744C85.2452 84.2266 80.0332 89.4386 80.0332 95.8678V159.515C80.0332 165.944 85.2452 171.156 91.6744 171.156H154.901C156.142 181.335 164.797 189.225 175.31 189.225C175.776 189.225 176.232 189.186 176.69 189.155C173.418 184.845 170.749 178.599 169 171.156H175.408C181.837 171.156 187.049 165.944 187.049 159.515V95.8678C187.049 89.4374 181.837 84.2266 175.408 84.2266Z" fill="white"/>
<path d="M154.903 171.157C154.07 162.133 154.954 150.62 154.954 150.62C155.678 138.578 152.087 125.562 149.366 123.332C145.452 120.108 141.809 117.063 140.509 121.125C139.763 123.459 139.534 127.355 139.584 131.697C139.702 142.206 141.878 155.323 142.99 161.378C143.384 163.527 144.358 171.157 144.358 171.157H154.903Z" fill="#F7941D"/>
<path d="M147.585 123.851C147.313 122.091 146.033 120.655 144.312 120.177C141.363 119.388 136.292 118.107 131.661 117.279C126.228 116.399 120.743 115.895 115.245 115.778C111.765 115.636 108.337 115.74 105.621 115.895C105.297 115.921 104.974 115.973 104.663 116.063C102.257 116.749 100.847 119.258 101.533 121.664C108.505 146.559 109.951 158.48 110.323 171.158H144.358C145.942 159.653 149.061 150.214 149.345 143.449C149.745 133.553 148.076 126.761 147.585 123.851Z" fill="#407BFF"/>
<path opacity="0.8" d="M147.585 123.851C147.313 122.091 146.033 120.655 144.312 120.177C141.363 119.388 136.292 118.107 131.661 117.279C126.228 116.399 120.743 115.895 115.245 115.778C111.765 115.636 108.337 115.74 105.621 115.895C105.297 115.921 104.974 115.973 104.663 116.063C102.257 116.749 100.847 119.258 101.533 121.664C108.505 146.559 109.951 158.48 110.323 171.158H144.358C145.942 159.653 149.061 150.214 149.345 143.449C149.745 133.553 148.076 126.761 147.585 123.851Z" fill="#407BFF"/>
<path d="M133.611 111.531C131.376 114.554 129.735 118.134 133.245 122.127C133.986 122.97 134.481 124.031 134.507 125.152C134.547 126.949 133.503 128.698 127.646 125.246C119.159 120.251 119.868 114.605 119.868 114.605C124.332 113.252 127 103.882 128.033 98.5195L133.611 111.531Z" fill="#FFB573"/>
<path opacity="0.2" d="M128.508 106.565C127.853 108.848 130.271 112.487 132.104 113.932C132.528 113.085 133.03 112.278 133.602 111.525L130.303 103.83C129.524 104.61 128.914 105.54 128.508 106.565Z" fill="black"/>
<path d="M150.853 83.3321C153.834 87.1176 147.109 98.5201 146.383 96.1399C145.206 92.2497 143.489 84.3916 143.515 81.1353C143.554 76.0338 147.873 79.5477 150.853 83.3321Z" fill="#263238"/>
<path d="M126.084 84.5194C129.417 78.844 136.718 76.946 142.394 80.2788C150.398 84.9145 149.791 97.8976 146.853 105.397C143.635 113.744 132.751 114.805 127.109 107.223C123.325 102.165 123.8 98.4891 124.469 89.775C124.589 87.9204 125.143 86.1211 126.084 84.5194Z" fill="#FFB573"/>
<path d="M136.727 94.1827C136.664 94.8919 136.984 95.5057 137.44 95.5551C137.897 95.6057 138.34 95.0565 138.414 94.3509C138.488 93.6453 138.157 93.0279 137.7 92.9785C137.244 92.9291 136.83 93.5136 136.727 94.1827Z" fill="#263238"/>
<path d="M137.471 93.0689L139.221 92.7432C139.221 92.7432 138.234 93.945 137.471 93.0689Z" fill="#263238"/>
<path d="M145.641 96.171C145.578 96.8801 145.898 97.494 146.354 97.5434C146.811 97.5928 147.254 97.0448 147.328 96.3392C147.402 95.6336 147.071 95.0162 146.614 94.9668C146.158 94.9174 145.744 95.5019 145.641 96.171Z" fill="#263238"/>
<path d="M146.385 95.058L148.135 94.7334C148.135 94.7334 147.148 95.9341 146.385 95.058Z" fill="#263238"/>
<path d="M142.262 101.541C143.097 101.879 144.037 101.834 144.836 101.419C143.988 99.8986 143.355 98.2686 142.956 96.5752L142.262 101.541Z" fill="#ED893E"/>
<path d="M135.586 101.244C135.536 101.14 135.581 101.014 135.686 100.964C135.79 100.915 135.916 100.96 135.965 101.064C136.844 102.628 138.421 103.675 140.203 103.875C140.312 103.897 140.386 103.999 140.375 104.109C140.375 104.113 140.374 104.116 140.374 104.12C140.358 104.228 140.258 104.302 140.15 104.285C139.813 104.247 139.48 104.181 139.155 104.087C137.632 103.655 136.346 102.631 135.586 101.244Z" fill="#263238"/>
<path d="M136.454 89.6021L136.453 89.6009C136.317 89.4175 136.356 89.1588 136.54 89.0223C138.437 87.5876 141.132 88.4144 141.247 88.4579C141.466 88.5284 141.586 88.7625 141.515 88.9812C141.445 89.1999 141.211 89.3199 140.992 89.2481C140.972 89.2399 138.627 88.4743 137.056 89.668C136.916 89.7785 136.72 89.7832 136.573 89.6797L136.454 89.6021Z" fill="#263238"/>
<path d="M149.253 92.3187C148.677 91.4238 147.702 90.8652 146.639 90.8205C146.408 90.8252 146.217 90.6429 146.212 90.4113C146.207 90.1796 146.39 89.9891 146.621 89.9844C147.965 90.0291 149.205 90.7206 149.948 91.8413C149.949 91.8436 149.951 91.8448 149.953 91.8472C150.08 92.0377 150.028 92.294 149.838 92.4211C149.718 92.5057 149.561 92.5198 149.428 92.4563C149.363 92.4222 149.303 92.3752 149.253 92.3187Z" fill="#263238"/>
<path d="M138.547 82.7781C135.924 83.2485 133.555 84.9666 132.292 87.3128C131.693 88.4241 127.832 90.8596 127.18 91.9391C125.102 95.3766 127.363 105.191 126.387 105.931C125.411 106.671 125.758 103.761 124.825 103.208C123.893 102.654 122.817 102.324 121.997 101.612C120.872 100.632 116.749 89.9846 121.775 83.5378C124.354 80.2309 127.948 77.6355 132.078 76.9087C136.208 76.1819 140.614 77.1839 144.025 79.6241C145.125 80.4108 147.033 82.57 143.975 83.5331C143.16 83.7895 143.123 83.1321 142.262 82.9169C141.052 82.6135 139.776 82.5582 138.547 82.7781Z" fill="#263238"/>
<path d="M118.538 91.9389C121.438 89.1153 125.06 89.1142 128.26 89.1177C130.052 89.1189 131.597 89.1189 132.76 88.6108C135.983 87.2043 137.964 82.6132 138.322 81.0997C138.67 79.6203 140.381 78.5996 141.01 78.5643C141.469 78.5243 142.976 78.6995 143.702 79.7544C144.277 80.5905 144.218 81.7936 143.528 83.3294L143.977 83.5317C144.744 81.8277 144.787 80.4623 144.109 79.4745C143.251 78.2291 141.569 78.0527 140.984 78.0727C140.13 78.1209 138.243 79.2922 137.844 80.9868C137.515 82.378 135.579 86.8445 132.565 88.1604C131.496 88.6273 129.993 88.6261 128.261 88.625C125.126 88.625 121.238 88.6226 118.194 91.5873L118.538 91.9389Z" fill="#263238"/>
<path opacity="0.1" d="M118.538 91.9389C121.438 89.1153 125.06 89.1142 128.26 89.1177C130.052 89.1189 131.597 89.1189 132.76 88.6108C135.983 87.2043 137.964 82.6132 138.322 81.0997C138.67 79.6203 140.381 78.5996 141.01 78.5643C141.469 78.5243 142.976 78.6995 143.702 79.7544C144.277 80.5905 144.218 81.7936 143.528 83.3294L143.977 83.5317C144.744 81.8277 144.787 80.4623 144.109 79.4745C143.251 78.2291 141.569 78.0527 140.984 78.0727C140.13 78.1209 138.243 79.2922 137.844 80.9868C137.515 82.378 135.579 86.8445 132.565 88.1604C131.496 88.6273 129.993 88.6261 128.261 88.625C125.126 88.625 121.238 88.6226 118.194 91.5873L118.538 91.9389Z" fill="white"/>
<path d="M121.021 95.2352C121.228 93.6664 122.668 92.5622 124.237 92.7703C126.402 93.0972 127.386 96.0149 127.389 97.9224C127.36 100.033 125.816 101.59 123.915 100.407C122.491 99.4958 121.483 98.06 121.11 96.4112C120.999 96.0302 120.969 95.6292 121.021 95.2352Z" fill="#FFB573"/>
<path d="M124.87 126.282C124.404 132.297 118.842 155.039 106.798 155.672C104.923 155.763 103.008 155.052 101.546 153.81C101.533 153.81 101.507 153.784 101.494 153.771C91.7795 147.924 99.4118 119.555 101.365 117.899C104.625 115.183 110.33 115.765 112.115 121.107C112.374 120.215 112.568 119.296 112.723 118.378C113.227 115.299 114.896 108.159 117.975 107.641C119.838 107.318 123.654 107.15 124.766 108.676C125.879 110.189 125.633 116.334 124.87 126.282Z" fill="#F7941D"/>
<g opacity="0.2">
<path d="M124.235 92.7705L124.292 93.3068L124.843 98.52V105.249L125.758 101.252C125.997 100.209 126.049 99.1315 125.912 98.0707L125.269 93.068L124.235 92.7705Z" fill="black"/>
</g>
<path d="M118.192 108.882L116.749 98.4002L125.48 98.332C125.48 98.332 124.76 106.202 122.574 108.882H118.192Z" fill="#FFB573"/>
<path d="M118.279 91.2412L124.747 92.3807L125.446 98.309L116.747 98.3995L118.279 91.2412Z" fill="#FFB573"/>
<path opacity="0.2" d="M109.49 130.67C109.49 130.67 104.259 142.765 104.101 137.975C103.928 132.773 109.49 130.67 109.49 130.67Z" fill="#EE9B59"/>
<path d="M432.048 201.37H399.685C396.606 201.37 394.109 203.866 394.109 206.944V227.79C394.109 230.869 396.605 233.366 399.685 233.366H408.99L413.146 238.801C414.516 240.593 417.217 240.593 418.587 238.801L422.743 233.366H432.049C435.128 233.366 437.624 230.87 437.624 227.791V206.946C437.623 203.866 435.127 201.37 432.048 201.37Z" fill="#407BFF"/>
<path opacity="0.7" d="M432.048 201.37H399.685C396.606 201.37 394.109 203.866 394.109 206.944V227.79C394.109 230.869 396.605 233.366 399.685 233.366H408.99L413.146 238.801C414.516 240.593 417.217 240.593 418.587 238.801L422.743 233.366H432.049C435.128 233.366 437.624 230.87 437.624 227.791V206.946C437.623 203.866 435.127 201.37 432.048 201.37Z" fill="white"/>
<path d="M430.173 215.69L419.813 209.369V213.159H415.068C408.731 213.159 403.593 218.297 403.593 224.635C403.593 225.506 403.699 226.351 403.882 227.167C405.036 222.049 409.601 218.222 415.068 218.222H419.813V222.012L430.173 215.69Z" fill="#F7941D"/>
<path d="M204.334 73.8154H229.149C231.511 73.8154 233.424 75.7288 233.424 78.0902V94.0744C233.424 96.4358 231.511 98.3491 229.149 98.3491H222.014L218.827 102.517C217.775 103.892 215.705 103.892 214.655 102.517L211.468 98.3491H204.332C201.972 98.3491 200.058 96.4358 200.058 94.0744V78.0902C200.058 75.73 201.972 73.8154 204.334 73.8154Z" fill="#407BFF"/>
<path opacity="0.7" d="M204.334 73.8154H229.149C231.511 73.8154 233.424 75.7288 233.424 78.0902V94.0744C233.424 96.4358 231.511 98.3491 229.149 98.3491H222.014L218.827 102.517C217.775 103.892 215.705 103.892 214.655 102.517L211.468 98.3491H204.332C201.972 98.3491 200.058 96.4358 200.058 94.0744V78.0902C200.058 75.73 201.972 73.8154 204.334 73.8154Z" fill="white"/>
<path d="M205.773 84.7957L213.716 79.9482V82.8541H217.355C222.215 82.8541 226.155 86.7938 226.155 91.6542C226.155 92.3221 226.074 92.9701 225.932 93.5957C225.048 89.6714 221.547 86.7373 217.355 86.7373H213.716V89.6432L205.773 84.7957Z" fill="#F7941D"/>
</svg>
